<?xml version="1.0" encoding="UTF-8" standalone="no"?>
<svg width="36px" height="43px" viewBox="0 0 36 43" version="1.1" xmlns="http://www.w3.org/2000/svg" xmlns:xlink="http://www.w3.org/1999/xlink">
    <!-- Generator: Sketch 3.6.1 (26313) - http://www.bohemiancoding.com/sketch -->
    <title>connect-icon</title>
    <desc>Created with Sketch.</desc>
    <defs></defs>
    <g id="New" stroke="none" stroke-width="1" fill="none" fill-rule="evenodd">
        <g id="Connect-Landing" transform="translate(-702.000000, -129.000000)" stroke-width="3" stroke="#02B3E4">
            <g id="Hero">
                <g id="Content" transform="translate(540.000000, 130.000000)">
                    <g id="connect-icon" transform="translate(163.000000, 0.000000)">
                        <path d="M5.53951518,28.1382023 L17.0088871,39.2263805 L28.6512883,27.9709238 C35.0883909,21.7477634 35.0883909,11.6612651 28.6512883,5.4400962 C22.2162456,-0.781072736 11.7829897,-0.781072736 5.34794701,5.4400962 C-1.08915557,11.6612651 -1.08915557,21.7477634 5.34794701,27.9709238 C5.40974319,28.0306661 5.477719,28.0804514 5.53951518,28.1382023 L5.53951518,28.1382023 Z" id="Stroke-1"></path>
                        <path d="M16.8587745,10.3868478 L16.8587745,10.3868478 C20.4464984,10.3868478 23.3819089,13.3222583 23.3819089,16.9099822 L23.3819089,16.9099822 C23.3819089,20.4977062 20.4464984,23.4331167 16.8587745,23.4331167 L16.8587745,23.4331167 C13.2710505,23.4331167 10.33564,20.4977062 10.33564,16.9099822 L10.33564,16.9099822 C10.33564,13.3222583 13.2710505,10.3868478 16.8587745,10.3868478 L16.8587745,10.3868478 Z" id="Stroke-3"></path>
                    </g>
                </g>
            </g>
        </g>
    </g>
</svg>