<?xml version="1.0" encoding="UTF-8" standalone="no"?>
<svg width="47px" height="20px" viewBox="0 0 47 20" version="1.1" xmlns="http://www.w3.org/2000/svg" xmlns:xlink="http://www.w3.org/1999/xlink" xmlns:sketch="http://www.bohemiancoding.com/sketch/ns">
    <!-- Generator: Sketch 3.5.1 (25234) - http://www.bohemiancoding.com/sketch -->
    <title>icon_nanodegree</title>
    <desc>Created with Sketch.</desc>
    <defs></defs>
    <g id="Feb-4---New-style" stroke="none" stroke-width="1" fill="none" fill-rule="evenodd" sketch:type="MSPage">
        <g id="Enrollment---ND-Plus" sketch:type="MSArtboardGroup" transform="translate(-614.000000, -382.000000)">
            <g id="Enrollment-options" sketch:type="MSLayerGroup" transform="translate(29.000000, 3.000000)">
                <g id="cards" transform="translate(207.000000, 297.000000)" sketch:type="MSShapeGroup">
                    <g id="primary-card">
                        <g id="icon_nanodegree" transform="translate(368.000000, 72.000000)">
                            <rect id="bounds" opacity="-0" fill="#FAFBFC" x="0" y="0" width="67" height="40"></rect>
                            <path d="M56.9184202,29.578489 C56.7944323,29.8330061 56.5470765,29.9909132 56.2774029,29.9909132 L35.192024,29.9909132 C34.956447,29.9909132 34.7363685,29.8696512 34.6006018,29.6651048 L33.5002093,28.0040814 L32.399197,29.6651048 C32.2634302,29.8696512 32.0433518,29.9909132 31.8077748,29.9909132 L10.7223959,29.9909132 C10.4527223,29.9909132 10.2059864,29.8330061 10.0813785,29.578489 C9.95739067,29.3253046 9.97598885,29.0188181 10.1309737,28.7856219 L22.3654778,10.3258084 C22.3791164,10.3051539 22.3970947,10.2891633 22.4125932,10.2705076 C22.424992,10.254517 22.4373907,10.2391927 22.4516493,10.2245347 C22.4826463,10.1912209 22.516743,10.1632374 22.5526995,10.1372526 C22.568198,10.125926 22.5824566,10.113933 22.5991949,10.1039389 C22.638871,10.0792867 22.6816469,10.0612973 22.7250426,10.0453067 C22.7405411,10.0399765 22.7547997,10.0319812 22.7702982,10.0273173 C22.8304323,10.0099941 22.8930462,10 22.9569,10 L22.9581398,10 L44.0416589,10 L44.0435187,10 C44.1073725,10 44.1693664,10.0099941 44.2295006,10.0273173 C44.244999,10.0319812 44.2592576,10.0399765 44.2747561,10.0453067 C44.3181519,10.0612973 44.3609277,10.0792867 44.4006038,10.1032726 C44.4173422,10.113933 44.4322207,10.125926 44.4477192,10.1372526 C44.4836757,10.1632374 44.5171524,10.1912209 44.5487693,10.2238684 C44.562408,10.2391927 44.5748068,10.254517 44.5878255,10.2705076 C44.603324,10.2891633 44.6213023,10.3051539 44.6349409,10.3258084 L56.8688251,28.7856219 C57.0244298,29.0188181 57.0424081,29.3253046 56.9184202,29.578489 L56.9184202,29.578489 Z M30.915682,27.9041401 L32.1877976,26.0239122 L23.3951971,12.7570457 L13.145739,27.9041401 L30.915682,27.9041401 L30.915682,27.9041401 Z M25.381483,12.0867731 L33.5002093,24.0843859 L41.6183158,12.0867731 L25.381483,12.0867731 L25.381483,12.0867731 Z M43.6046016,12.757712 L34.8120011,26.0239122 L36.0841168,27.9041401 L53.8540597,27.9041401 L43.6046016,12.757712 L43.6046016,12.757712 Z" id="icon_nano" fill="#02B3E4"></path>
                        </g>
                    </g>
                </g>
            </g>
        </g>
    </g>
</svg>