<svg xmlns="http://www.w3.org/2000/svg" width="54" height="72" viewBox="0 0 54 72">
  <g fill="none" fill-rule="evenodd" transform="translate(0 11)">
    <path fill="#383C45" d="M37.8888192,25.4569985 L41.6865098,21.6576893 L37.5824526,17.5508609 C34.2438196,14.2108383 35.2237302,12.4338627 35.9901425,11.6673877 C36.4799292,11.1773495 36.9700498,10.8096531 37.3071489,10.6258049 C37.7665403,11.5146217 38.3789398,12.3726902 39.1446878,13.1080831 C43.1264628,17.122326 47.4757488,16.5707714 50.8147123,13.2003345 C52.8055964,11.2080945 53.7547745,9.36961574 54,8.45004074 L50.7228419,6.64198291 C50.3249255,7.50005473 49.4058322,8.97117105 48.36445,10.0130878 C46.5569892,11.8519038 44.8420631,11.8519038 43.6780681,10.9019046 L50.5080349,4.0988563 L49.6507371,3.24078778 C45.6378959,-0.804530783 41.9013465,-1.01880322 38.5323049,2.35229503 C36.2955309,4.58923171 35.9901623,7.3469515 36.9697391,9.85997793 L34.457992,6.88764842 C34.2134308,6.97924517 33.753709,7.34694158 33.293997,7.80688945 C31.9776417,9.15533338 31.6709445,11.2388329 32.0080536,12.6180218 L30.3228718,11.1779844 L26.9845594,14.518665 L31.5787371,19.1155348 C27.9337375,16.1121264 24.6562456,16.2655603 21.6243031,19.2990491 C18.5612943,22.3636267 18.7450482,26.102094 21.2868702,29.2278475 L20.8582245,28.7989786 C18.1323248,26.0716797 15.497965,25.4897109 12.8943475,28.1247583 C11.3631786,29.6262889 11.1179498,31.0974085 11.2709711,32.4151009 L4.83925782,26.0105105 L1.10204082,29.7493085 L13.5374795,42.2222222 L21.1338488,42.2222222 L15.8962052,36.9818903 C14.0586664,35.1734985 13.5070709,33.9166546 14.6403366,32.7834751 C15.4675563,31.9257373 16.4170682,31.9561516 17.581387,33.1200893 L23.8904876,39.4641784 L27.6885119,35.6642046 L22.972052,30.945327 C26.7086014,34.0399983 30.7825837,33.2741812 33.8753335,30.1484277 C35.4987099,28.5546357 36.387735,27.0831921 36.8160601,26.0726882 L33.477427,24.2031272 C32.9876403,25.0615297 32.2519572,26.13354 31.4561343,26.961515 C29.6176072,28.800331 27.9026745,28.800331 26.73901,27.8503318 L33.50849,21.077711 L37.8888192,25.4569985 L37.8888192,25.4569985 Z M24.3508572,25.764511 C23.3091412,24.5691703 23.2787425,23.1598779 24.3508572,22.0865582 C25.3922394,21.0449755 26.7399882,21.0138932 28.056998,22.0865582 L24.3508572,25.764511 L24.3508572,25.764511 Z M41.2889272,8.81741311 C40.2472112,7.62239646 40.217133,6.24320755 41.2889272,5.14011831 C42.3299756,4.09820159 43.6780582,4.0674533 44.9643354,5.14011831 L41.2889272,8.81741311 L41.2889272,8.81741311 Z"/>
    <polygon fill="#43DAD2" points="13.776 42.222 0 42.222 6.893 49.172"/>
  </g>
</svg>
