<svg xmlns="http://www.w3.org/2000/svg" width="115" height="72" viewBox="0 0 115 72">
  <g fill="none" fill-rule="evenodd" transform="translate(0 32)">
    <path fill="#3C3C3B" d="M49.4852706 7.07054286C48.9097766 7.92782857 48.9097766 9.04040571 49.4852706 9.90099429L53.776134 16.52672 58.7959235 16.52672 53.5930627 8.48436 58.7989863.442388571 53.776134.442388571 49.4852706 7.07054286 49.4852706 7.07054286zM47.7772637 7.07054286C48.3528565 7.92782857 48.3528565 9.04040571 47.7772637 9.90099429L43.4868943 16.52672 38.4669072 16.52672 43.6698668 8.48436 38.4640421.442388571 43.4868943.442388571 47.7772637 7.07054286 47.7772637 7.07054286zM20.8627191 13.98148C20.8627191 15.0316914 21.7933892 16.5286629 23.4873668 16.5286629L37.5485868 16.5286629 37.5485868 12.9877086 25.0430284 12.9877086 25.0430284 10.2549829 34.2813617 10.2549829 34.2813617 6.71587429 25.0430284 6.71587429 25.0430284 3.98130286 37.5708162 3.98130286 37.5708162.442582857 23.4873668.442582857C21.7933892.442582857 20.8627191 1.93955429 20.8627191 2.98850286L20.8627191 13.98148 20.8627191 13.98148z"/>
    <polygon fill="#3C3C3B" points="59.696 .443 59.696 3.981 67.119 3.981 67.119 16.528 71.318 16.528 71.318 3.981 78.718 3.981 78.718 .443"/>
    <path fill="#3C3C3B" d="M14.2724485,16.0607257 C16.1732088,17.8956571 19.3514175,16.55868 19.3514175,13.9184343 L19.3514175,0.441028571 L15.1307002,0.441028571 L15.1307002,11.2013486 L5.12520619,0.99824 C3.13177405,-0.926937143 0.0195618557,0.304542857 0.0270704467,3.08224571 L0.0270704467,16.5269143 L4.2477878,16.5269143 L4.2477878,5.84256 L14.2724485,16.0607257 L14.2724485,16.0607257 Z"/>
    <path fill="#12D4C9" d="M110.245185,0.442582857 L105.112766,11.3408457 L101.054669,2.71834857 C100.684278,1.91507429 100.181598,0.442874286 98.2592998,0.442874286 L82.7039691,0.442874286 C81.0104854,0.442582857 80.0797165,1.93314286 80.0797165,2.98199429 L80.0797165,13.9837143 C80.0797165,15.0315943 81.0105842,16.5283714 82.7039691,16.5283714 L96.7635095,16.5283714 L96.7635095,12.988 L84.2585438,12.988 L84.2585438,10.2548857 L93.496482,10.2548857 L93.496482,6.71597143 L84.2585438,6.71597143 L84.2585438,3.98120571 L96.9584364,3.98120571 L101.710584,14.0962057 C102.490588,15.7560857 103.463643,16.9025657 105.098935,16.9025657 C106.73393,16.9025657 107.706194,15.7560857 108.492324,14.0962057 L114.917899,0.442485714 L110.245185,0.442485714 L110.245185,0.442582857 Z"/>
  </g>
</svg>
