<svg xmlns="http://www.w3.org/2000/svg" width="97" height="72" viewBox="0 0 97 72" xmlns:xlink="http://www.w3.org/1999/xlink">
  <defs>
    <polygon id="a" points=".185 14.513 14.338 14.513 14.338 .356 .185 .356"/>
    <polygon id="c" points=".452 14.513 12.941 14.513 12.941 .356 .452 .356"/>
    <polygon id="e" points="0 .13 0 4.358 4.25 4.358 4.25 .13 0 .13"/>
  </defs>
  <g fill="none" fill-rule="evenodd" transform="translate(0 23)">
    <path fill="#00ACE4" d="M1.94881339,0 L2.3032356,0 C3.37158962,0 4.25001404,0.8697825 4.25001404,1.93004062 L4.25001404,16.3522481 C4.25001404,17.4158775 3.37158962,18.2890312 2.3032356,18.2890312 L1.94881339,18.2890312 C0.877067776,18.2890312 0.000339160006,17.4158775 0.000339160006,16.3522481 L0.000339160006,1.93004062 C0.000339160006,0.8697825 0.877067776,0 1.94881339,0"/>
    <path fill="#505F5F" d="M15.5035126,15.9972555 L15.5035126,16.3529224 C15.5035126,17.4148661 14.626784,18.2880199 13.5550384,18.2880199 L1.94898297,18.2880199 C0.877237356,18.2880199 0.00050874001,17.4148661 0.00050874001,16.3529224 L0.00050874001,15.9972555 C0.00050874001,14.9319405 0.877237356,14.0604724 1.94898297,14.0604724 L13.5550384,14.0604724 C14.626784,14.0604724 15.5035126,14.9319405 15.5035126,15.9972555"/>
    <path fill="#9BCB45" d="M19.7577662,8.99668631 L19.7577662,9.35572444 C19.7577662,10.4159826 18.8793417,11.2891363 17.8092919,11.2891363 L9.01656876,11.2891363 C7.94482314,11.2891363 7.07148613,10.4159826 7.07148613,9.35572444 L7.07148613,8.99668631 C7.07148613,7.93474256 7.94482314,7.06327444 9.01656876,7.06327444 L17.8092919,7.06327444 C18.8793417,7.06327444 19.7577662,7.93474256 19.7577662,8.99668631"/>
    <path fill="#E21B22" d="M19.7798116,23.1062104 L19.7798116,23.4568204 C19.7798116,24.5221354 18.9013871,25.3919179 17.8330331,25.3919179 L9.04370156,25.3919179 C7.97365174,25.3919179 7.09861893,24.5221354 7.09861893,23.4568204 L7.09861893,23.1062104 C7.09861893,22.042581 7.97365174,21.1727985 9.04370156,21.1727985 L17.8330331,21.1727985 C18.9013871,21.1727985 19.7798116,22.042581 19.7798116,23.1062104"/>
    <path fill="#505F5F" d="M29.4150082 7.09412138L29.4523158 7.09412138C30.04415 7.09412138 30.5308446 7.57789575 30.5308446 8.1678645L30.5308446 23.2693789 36.8290459 23.2693789C37.3818767 23.2693789 37.8465259 23.7278689 37.8465259 24.2807539L37.8465259 24.3127808C37.8465259 24.869037 37.3818767 25.3258414 36.8290459 25.3258414L29.4523158 25.3258414 29.4150082 25.3258414 29.3539594 25.3258414C28.7909538 25.3258414 28.3398709 24.869037 28.3398709 24.3127808L28.3398709 24.2807539 28.3398709 24.2672689 28.3398709 24.2520983 28.3398709 8.1678645C28.3398709 7.57789575 28.823174 7.09412138 29.4150082 7.09412138M55.5015 7.09412138L55.5320244 7.09412138 64.9454104 7.09412138C65.5067202 7.09412138 65.9611946 7.54586888 65.9611946 8.10549638L65.9611946 8.134152C65.9611946 8.69209388 65.5067202 9.145527 64.9454104 9.145527L56.6156406 9.145527 56.6156406 15.1851214 63.6956058 15.1851214C64.253524 15.1851214 64.7130858 15.6368689 64.7130858 16.1931251L64.7130858 16.225152C64.7130858 16.7814083 64.253524 17.2348414 63.6956058 17.2348414L56.6156406 17.2348414 56.6156406 23.2693789 64.9454104 23.2693789C65.5067202 23.2693789 65.9611946 23.7278689 65.9611946 24.2807539L65.9611946 24.3127808C65.9611946 24.869037 65.5067202 25.3258414 64.9454104 25.3258414L55.5320244 25.3258414 55.5015 25.3258414 55.4353638 25.3258414C54.8774456 25.3258414 54.416188 24.869037 54.416188 24.3127808L54.416188 24.2807539C54.416188 24.275697 54.4178838 24.2740114 54.4178838 24.2672689 54.4178838 24.262212 54.416188 24.2588408 54.416188 24.2520983L54.416188 16.225152 54.416188 16.1931251 54.416188 8.1678645C54.416188 8.16280763 54.4178838 8.15606513 54.4178838 8.15269388 54.4178838 8.147637 54.416188 8.1408945 54.416188 8.134152L54.416188 8.10549638C54.416188 7.54586888 54.8774456 7.09412138 55.4353638 7.09412138L55.5015 7.09412138z"/>
    <g transform="translate(81.027 11.217)">
      <mask id="b" fill="white">
        <use xlink:href="#a"/>
      </mask>
      <path fill="#505F5F" d="M7.26375268,2.39536768 C9.93294193,2.39536768 12.0916954,4.65410518 12.0916954,7.43538643 C12.0916954,10.2166677 9.93294193,12.4754052 7.26375268,12.4754052 C4.59625923,12.4754052 2.4307226,10.2166677 2.4307226,7.43538643 C2.4307226,4.65410518 4.59625923,2.39536768 7.26375268,2.39536768 M7.26375268,0.355761434 C11.1691802,0.355761434 14.3386304,3.52136518 14.3386304,7.43538643 C14.3386304,11.3460364 11.1691802,14.5133258 7.26375268,14.5133258 C3.35493361,14.5133258 0.185483355,11.3460364 0.185483355,7.43538643 C0.185483355,3.52136518 3.35493361,0.355761434 7.26375268,0.355761434" mask="url(#b)"/>
    </g>
    <g transform="translate(66.798 11.217)">
      <mask id="d" fill="white">
        <use xlink:href="#c"/>
      </mask>
      <path fill="#505F5F" d="M7.52848565,0.355592872 C9.32433788,0.355592872 10.9641765,1.024786 12.2088937,2.12718475 C13.8165122,3.55153787 12.1122331,4.86632537 10.6233207,3.56165162 C9.78220389,2.831776 8.70367507,2.39519912 7.52848565,2.39519912 C4.8609922,2.39519912 2.69545556,4.65393662 2.69545556,7.43521787 C2.69545556,10.2164991 4.8609922,12.4752366 7.52848565,12.4752366 C8.69350027,12.4752366 10.5995795,11.6256816 11.3711685,10.7997254 C11.9969187,10.2872954 13.2772478,11.044141 12.8583851,12.0942854 C11.5594023,13.5759497 9.65332309,14.5131572 7.52848565,14.5131572 C3.61797078,14.5131572 0.451912124,11.3475535 0.451912124,7.43521787 C0.451912124,3.52119662 3.61797078,0.355592872 7.52848565,0.355592872" mask="url(#d)"/>
    </g>
    <path fill="#505F5F" d="M41.2686504,17.7383376 L49.6662521,17.7484513 C49.0981591,12.3005113 42.4133154,11.8133657 41.2686504,17.7383376 M49.7374757,22.1327619 C50.4276663,21.3877157 51.9674528,22.7918413 50.9482769,23.6666807 C46.9004023,27.4660794 41.4433178,25.2949944 40.1138106,22.5541682 C37.4988869,17.5478619 40.449579,11.1205738 46.2356487,11.6363751 C49.0608515,11.8892188 51.4417548,14.0889594 51.9199704,18.1159176 C51.9352326,19.0733526 51.4875414,19.4526182 50.7685221,19.5031869 L41.2432134,19.5031869 C41.8367434,23.3868669 46.1118553,25.3826469 49.7374757,22.1327619"/>
    <g transform="translate(0 13.93)">
      <mask id="f" fill="white">
        <use xlink:href="#e"/>
      </mask>
      <path fill="#35454A" d="M4.2495053,0.13013025 L4.2495053,2.42258025 C4.2495053,3.484524 3.37108088,4.35767775 2.30272686,4.35767775 L1.94830465,4.35767775 C1.92625925,4.35767775 1.91438865,4.35767775 1.89912645,4.35599213 C1.87708105,4.3543065 1.86181885,4.3543065 1.84825245,4.3543065 C1.82959865,4.35093525 1.81264065,4.35093525 1.79907425,4.35093525 C1.77872465,4.35093525 1.76515825,4.35093525 1.74989605,4.347564 C1.72954645,4.34587838 1.71428425,4.34419275 1.70241365,4.34419275 C1.68206405,4.3408215 1.66510605,4.33745025 1.65323545,4.33239338 C1.63288585,4.32902213 1.61931945,4.3273365 1.60575305,4.32396525 C1.58540345,4.32227963 1.57183705,4.31890838 1.55657485,4.31553713 C1.53622525,4.3138515 1.52265885,4.31048025 1.51078825,4.30879463 C1.49213445,4.30205213 1.47856805,4.30205213 1.46500165,4.29699525 C0.825685035,4.13011838 0.313553426,3.65140088 0.104970022,3.04289025 C0.0981868217,3.02266275 0.0914036216,3.00917775 0.0863162215,2.99569275 C0.0812288214,2.97715088 0.0778372214,2.9653515 0.0744456213,2.9518665 C0.0710540213,2.92995338 0.0659666212,2.918154 0.0642708211,2.904669 C0.0591834211,2.88949838 0.055791821,2.8709565 0.0507044209,2.85578588 C0.0439212208,2.84061525 0.0405296207,2.823759 0.0371380207,2.81195963 C0.0354422206,2.79510338 0.0320506206,2.7765615 0.0303548205,2.7630765 C0.0286590205,2.74790588 0.0252674204,2.72767838 0.0235716204,2.715879 C0.0218758204,2.70070838 0.0201800204,2.6821665 0.0167884203,2.66699588 C0.0167884203,2.65182525 0.0133968202,2.63159775 0.0100052202,2.61811275 L0.0100052202,2.57091525 C0.00661362012,2.55574463 0.00491782009,2.53551713 0.00322202006,2.5203465 C0.00322202006,2.5068615 0.00152622003,2.486634 0.00152622003,2.473149 C0.00152622003,2.45460713 -0.000169580004,2.43775088 -0.000169580004,2.42258025 L-0.000169580004,2.06691338 C-0.000169580004,1.003284 0.878254836,0.13013025 1.94830465,0.13013025 L4.2495053,0.13013025 Z" mask="url(#f)"/>
    </g>
  </g>
</svg>
