<svg xmlns="http://www.w3.org/2000/svg" width="136" height="72" viewBox="0 0 136 72" xmlns:xlink="http://www.w3.org/1999/xlink">
  <defs>
    <polygon id="a" points=".184 16.363 13.956 16.363 13.956 .216 .184 .216 .184 16.363"/>
  </defs>
  <g fill="none" fill-rule="evenodd" transform="translate(0 23)">
    <path fill="#35475F" d="M16.1762115 0C16.2852511.0842403404 16.3865022.18241973 16.5045286.251205907 20.8499383 2.77841612 25.1971454 5.3025961 29.5434537 7.82798818 29.6542907 7.89222901 29.761533 7.96222728 29.9119119 8.0555583 25.3199648 10.7560976 20.765163 13.4354252 16.1043172 16.1765695L16.1043172 0 16.1762115 0M0 9.45431158C1.5876652 10.3745918 3.17473128 11.2966902 4.76359471 12.2151524 7.64086344 13.8784446 10.51963 15.5396156 13.3974978 17.2019987 13.5113304 17.2677547 13.622467 17.338056 13.7887225 17.4389625 13.6572159 17.524112 13.5577621 17.5938072 13.4532159 17.6550178 9.06137445 20.2231361 4.66863436 22.7906483.276493392 25.3584636.183330396 25.4130077.0919647577 25.4705821 0 25.5266413L0 9.45431158M135.808282 23.490328C135.769639 23.5157819 135.723207 23.5342663 135.692952 23.5675988 133.83748 25.616033 131.539559 26.0635977 128.999295 25.3293734 126.271806 24.5409081 124.808458 22.5524724 124.333656 19.8040556 123.961903 17.6516846 124.169797 15.5556758 125.256599 13.6093603 127.058749 10.3815614 130.704088 9.65642779 133.066115 10.4821649 134.017216 10.814884 134.833216 11.3751732 135.565339 12.1057611 134.952141 12.8036227 134.358115 13.4793635 133.757797 14.1620739 133.549604 13.9993507 133.365674 13.844809 133.17096 13.7054185 131.682449 12.6378692 129.755383 12.9199834 128.623348 14.3732808 128.0437 15.1172018 127.739348 15.9796047 127.638696 16.9089757 127.515278 18.0495535 127.556916 19.1822528 127.926273 20.2834376 128.883965 23.1388216 131.935577 23.3897244 133.628687 21.7697645 133.732634 21.67007 133.839278 21.5737088 133.967189 21.4552268 134.584282 22.1130893 135.196282 22.7654975 135.808282 23.4176025L135.808282 23.490328zM121.361487 25.3674028C120.252219 25.3674028 119.199866 25.3731602 118.147813 25.3580091 118.050456 25.356797 117.912659 25.2461937 117.86413 25.1501354 116.183901 21.8205208 114.327232 18.580904 112.881857 15.1322014 112.819249 14.9828112 112.745857 14.8376633 112.605963 14.7028181 113.081963 18.2424275 112.958844 21.7880974 112.95495 25.3495244L109.845822 25.3495244 109.845822 10.4780741C109.965346 10.4668623 110.059108 10.4511051 110.15287 10.4508021 111.075214 10.4489839 111.997558 10.4550444 112.919901 10.4453477 113.137681 10.4432265 113.265893 10.5101946 113.368641 10.7141289 115.066544 14.0882879 116.955267 17.3657825 118.391954 20.8720594 118.431196 20.9675116 118.486315 21.0562973 118.58517 21.2472017 118.602245 21.0669031 118.619919 20.9935716 118.613928 20.9223612 118.495003 19.4987601 118.314368 18.0775831 118.26584 16.6518608 118.199038 14.6788793 118.232888 12.7022615 118.217311 10.7274619 118.215813 10.5229215 118.288007 10.4468628 118.487813 10.4480749 119.362227 10.4538323 120.236641 10.4532263 121.111355 10.449287 121.294685 10.4483779 121.377064 10.5208004 121.361487 10.7077654 121.355496 10.7798849 121.361487 10.8532164 121.361487 10.9259418L121.361487 24.9222623 121.361487 25.3674028zM14.5546661 34.8574711C9.95732687 32.1875371 5.39503612 29.5379057.783318062 26.8597901 5.38245463 24.1547055 9.93995242 21.4741658 14.5546661 18.7602935L14.5546661 34.8574711z"/>
    <g transform="translate(15.877 18.514)">
      <mask id="b" fill="white">
        <use xlink:href="#a"/>
      </mask>
      <path fill="#35475F" d="M13.9560863,8.25140194 C9.38271189,10.9680014 4.87943436,13.6430868 0.300368282,16.3633225 C0.261125991,10.9610319 0.222782379,5.63237582 0.183540088,0.216146168 C4.79136388,2.90456451 9.3353815,5.55571105 13.9560863,8.25140194" mask="url(#b)"/>
    </g>
    <path fill="#35475F" d="M16.8798167 17.4725375C21.5095084 14.7665438 26.0706009 12.1005492 30.6706361 9.41213081L30.6706361 25.4147653C26.073896 22.767558 21.5098079 20.1391382 16.8798167 17.4725375M84.7686203 23.4868432C85.3941004 22.726256 86.0049022 21.9829411 86.6336775 21.2184145 86.7436159 21.2984125 86.8379771 21.3653806 86.930541 21.4347728 87.827422 22.1086955 88.7911048 22.6544396 89.9273339 22.7232258 90.4407789 22.7544371 90.9787877 22.6795905 91.4784529 22.5471695 92.0035806 22.407779 92.3043383 21.9911227 92.3540652 21.423561 92.4016952 20.8823622 92.1815189 20.4554031 91.7184 20.2178332 90.9943648 19.8463272 90.2445674 19.5257291 89.5025586 19.1902829 88.9567612 18.9436223 88.391193 18.7369607 87.860074 18.461513 86.2349639 17.6185036 85.2524088 16.3333838 85.3587524 14.4104011 85.459704 12.5871129 86.4826996 11.3956272 88.0802502 10.6762511 90.4099242 9.62718609 93.6391753 10.2838365 95.3128141 12.1437905 94.7625233 12.8349855 94.2089374 13.5307259 93.6604441 14.2194967 93.285096 13.9873813 92.9379066 13.7492053 92.5703471 13.5498163 91.6935366 13.0743735 90.7583119 12.9331649 89.7877392 13.1586139 89.0693956 13.3255795 88.6919507 13.8076887 88.6997392 14.4510062 88.7054308 14.9200855 88.9624529 15.2355322 89.335704 15.4337091 89.885096 15.7255201 90.4548581 15.9800592 91.0255189 16.2282349 91.7175013 16.5294396 92.4286555 16.7864029 93.1143471 17.1012436 94.2769374 17.6345638 95.2313339 18.394848 95.5949991 19.7063307 96.1776423 21.8056727 95.3131137 23.8568341 93.4013251 24.878021 91.6039683 25.8379972 89.723933 25.8310277 87.8187348 25.2725566 86.6315806 24.9240804 85.535193 24.2698542 84.7686203 23.4868432M102.187644 17.1639997C102.397036 16.6146193 102.60493 16.0646329 102.81612 15.5155556 103.422428 13.9374128 104.034428 12.3610882 104.632349 10.7793091 104.721618 10.5429513 104.833353 10.4396205 105.096666 10.4435598 106.113371 10.458711 107.130076 10.4496203 108.214481 10.4496203 108.132402 10.6393126 108.076085 10.7784 108.013477 10.9141543 106.653776 13.8507483 105.29108 16.7858272 103.939767 19.7263605 103.84301 19.9369614 103.78849 20.1869552 103.786393 20.4193737 103.772913 21.9096398 103.779503 23.400512 103.779503 24.8910812L103.779503 25.3441003 100.466675 25.3441003 100.466675 24.9271409C100.466675 23.4123299 100.472067 21.8975189 100.460684 20.3827079 100.459186 20.1733192 100.410957 19.9478702 100.323785 19.7584809 98.9715736 16.8185537 97.6091771 13.8831717 96.2497762 10.9462747 96.1850714 10.8065812 96.1245604 10.6644635 96.0403841 10.4744682 96.2075383 10.4644684 96.3321551 10.4508324 96.4570714 10.4505294 97.3674326 10.4487112 98.2780934 10.4605291 99.1884546 10.4429538 99.4715383 10.4374994 99.6105339 10.52477 99.7114855 10.7999147 100.446305 12.8077438 101.1976 14.8092094 101.944701 16.8121902 101.989935 16.9333993 102.043256 17.0518812 102.092684 17.1715752 102.124137 17.169151 102.155891 17.1664238 102.187644 17.1639997"/>
    <path fill="#E34E32" d="M3.79460969,8.13034433 C6.93638943,9.96575348 10.0119665,11.7629817 13.0944335,13.5638463 L13.0944335,2.6068446 C9.9574467,4.47013185 6.91152599,6.279178 3.79460969,8.13034433 M0.887085463,8.14307129 C5.44668018,5.43465344 9.94276828,2.76411344 14.5218344,0.0441807253 C14.5613762,5.42919903 14.6006185,10.7499765 14.6404599,16.1656001 C10.0509093,13.4883936 5.50719119,10.8381561 0.887085463,8.14307129"/>
    <path fill="#35475F" d="M62.4852899 17.7573183C62.4852899 17.4545985 62.5047612 17.1500606 62.4819947 16.849159 62.3870344 15.6043413 62.1054485 14.4107344 61.4706819 13.3243977 60.403052 11.4977762 58.539193 10.6287068 56.4860123 11.0502115 54.7773251 11.4011119 53.6692546 12.5168419 53.0575542 14.1104388 52.1181357 16.557954 52.1412018 19.0381957 53.0608493 21.4893472 53.5065938 22.6774996 54.2584881 23.6450515 55.4114925 24.2229159 57.4047612 25.2213761 60.1894661 24.7910837 61.612074 22.0114555 62.2944705 20.6781551 62.5209374 19.2421301 62.4852899 17.7573183M51.3353868 17.5718684C51.3281974 16.2679612 51.5558626 14.830724 52.2017128 13.4871209 53.2702414 11.2644486 54.9924088 10.0162977 57.4784529 10.0229642 59.9803736 10.0299337 61.7034396 11.296266 62.7569903 13.5434832 63.4825233 15.0904146 63.6676511 16.7406768 63.5852722 18.430635 63.5181709 19.8109039 63.2392811 21.1435982 62.5949286 22.3738708 61.5734308 24.3247316 60.0088317 25.5077326 57.793889 25.6274267 55.5259242 25.7498479 53.784585 24.7644177 52.5926379 22.8232536 51.6421357 21.2754131 51.329096 19.5496982 51.3353868 17.5718684M40.6293709 14.5818817C40.6293709 15.6109472 40.6296705 16.6400126 40.6290714 17.6690781 40.6290714 17.8424071 40.6101991 18.0196755 40.8705163 18.0117969 42.2445956 17.9711918 43.6276617 18.0190694 44.9909568 17.8754366 46.8149744 17.6833201 47.7445075 16.7454646 47.9242432 15.0064167 48.1423225 12.8970749 47.338904 11.5401388 45.2051419 11.2983266 43.7726485 11.1359063 42.3155912 11.1943897 40.8696176 11.1510575 40.6084018 11.1431789 40.6290714 11.3222654 40.6293709 11.4946854 40.6296705 12.5237508 40.6293709 13.5528163 40.6293709 14.5818817M40.6290714 25.3552516L39.6519084 25.3552516 39.6519084 10.3222901C39.6917498 10.3083511 39.7250009 10.2856244 39.7576529 10.2865334 41.6355912 10.3259264 43.5162256 10.3250173 45.3902696 10.4328934 46.0004722 10.4680441 46.6277498 10.7186439 47.1891242 10.9925766 48.2396793 11.5049881 48.7678026 12.4410256 48.9325604 13.5846337 49.0544811 14.4312794 49.0299172 15.2779251 48.7624106 16.0994199 48.2645427 17.6290791 47.0959612 18.3772424 45.634111 18.6578415 44.7132652 18.8348068 43.7567718 18.8329887 42.8146573 18.8805633 42.2053533 18.9114716 41.5927542 18.9026839 40.9828511 18.8796542 40.6859877 18.8684423 40.6230802 18.9811668 40.624578 19.2554025 40.6338643 21.1332348 40.6293709 23.0110671 40.6290714 24.8892025L40.6290714 25.3552516M83.8644899 10.2764731C83.3112035 11.3888698 82.797459 12.4249048 82.2816176 13.4594246 81.3709568 15.284834 80.4540053 17.1069102 79.5547278 18.938077 79.4480846 19.1550413 79.3893709 19.4192772 79.3875736 19.6623015 79.3737938 21.4068038 79.3800846 23.1513061 79.3800846 24.8958084L79.3800846 25.3454942 78.3741639 25.3454942 78.3741639 24.9588371C78.3741639 23.190093 78.3804546 21.4213489 78.3663753 19.6526048 78.364578 19.4101865 78.3049656 19.1465567 78.1983225 18.9301984 76.8338291 16.1578427 75.4558555 13.3927596 74.0820758 10.6252523 74.0350449 10.5304062 73.9978996 10.4304086 73.9325956 10.2776852 74.2666044 10.2776852 74.5625692 10.2531403 74.8507454 10.2910182 74.9534943 10.3043512 75.0700229 10.4522263 75.1248423 10.5661629 76.1226749 12.6442933 77.1097233 14.7278781 78.1048599 16.8072206 78.3424106 17.3032689 78.6015295 17.7887115 78.8846132 18.3453644 79.0014414 18.1423391 79.0796264 18.0235541 79.1410361 17.8965876 80.3000317 15.5075558 81.4644194 13.1212512 82.6051419 10.7234317 82.7681022 10.3807129 82.9502344 10.2116262 83.3276793 10.2725338 83.4768599 10.2964726 83.63323 10.2764731 83.8644899 10.2764731M68.062578 24.4666978L68.5271947 24.4666978 74.4551771 24.4666978C74.9581374 24.4666978 74.9590361 24.4670008 74.9545427 24.9800184 74.9536441 25.0981973 74.943459 25.2163762 74.9368687 25.3503123L67.062948 25.3503123C67.055459 25.1884981 67.0422784 25.0336535 67.0422784 24.8791118 67.0410802 20.191046 67.0413797 15.5026771 67.0413797 10.8146113 67.0413797 10.2803821 67.0416793 10.2803821 67.5563225 10.2806851L68.062578 10.2806851 68.062578 24.4666978z"/>
  </g>
</svg>
