<svg xmlns="http://www.w3.org/2000/svg" width="102" height="72" viewBox="0 0 102 72">
  <g fill="#006CB7" fill-rule="evenodd" transform="translate(0 34)">
    <path d="M50.628049.874158938C55.7009602-.147435897 60.9374464-.131751227 66.0603677.482042189 68.1774668.75809238 70.3810419 1.03727951 72.247048 2.15925623 73.3368539 2.79291689 74.1797344 3.94417167 74.2193258 5.23763412 70.7269459 5.3097836 67.2345659 5.27318603 63.7432278 5.26272959 62.7003064 4.04037098 61.0332993 3.65766503 59.4986108 3.58760684 57.4419408 3.51859429 55.3040041 3.67439534 53.420286 4.57364975 51.8282942 5.33069649 50.4623902 6.73290598 50.0414709 8.48436079 49.8362206 9.28218767 50.3498672 10.1072013 51.0479265 10.4679487 52.3971604 11.1591198 53.9443514 11.2396345 55.4300715 11.2950536 57.3742186 11.373477 59.3996323 11.008547 61.0499694 9.92630478 61.2135444 9.83324241 61.3562819 9.65652846 61.5646578 9.68266958 65.0955873 9.67012184 68.6275587 9.67535006 72.1584883 9.69103473 70.9426149 11.0566467 69.325618 11.9945899 67.6419408 12.6575286 65.531093 13.4898618 63.2889683 13.9269413 61.0489275 14.2270413 58.5630031 14.5240044 56.0593667 14.7069922 53.5557303 14.6703946 50.1685802 14.651573 46.7428805 14.430942 43.4755465 13.4794053 41.9689888 13.0078196 40.4488866 12.2852791 39.4663943 10.9991362 38.647477 9.97963266 38.5328703 8.49795417 39.0694382 7.32160393 39.7654137 5.77404983 41.1271502 4.65521004 42.5555669 3.81242044 45.0508682 2.37256774 47.8160163 1.45344608 50.628049.874158938L50.628049.874158938zM6.19397344.545826514C9.86451481.486224768 13.5360981.580332788 17.2076813.565693763 16.5325434 2.0954719 15.8469867 3.62211311 15.1697651 5.15189125 18.7423698 5.15816512 22.3149745 5.13934352 25.8875792 5.16130205 26.5866803 3.63675214 27.237855 2.08815239 27.937998.563602473 31.7106435.559419895 35.4822472.550009093 39.2548927.564648118 37.2075996 5.10483724 35.1686415 9.64711766 33.1307252 14.1914894 29.9707048 14.2605019 26.8096425 14.2186761 23.6496221 14.2280869 23.0515832 14.2343608 22.4514607 14.2479542 21.8586313 14.1643026 22.6942186 12.3804328 23.4829213 10.5746045 24.2862104 8.7771413 20.7031869 8.77609565 17.1191216 8.77609565 13.5360981 8.77609565 12.758856 10.5787871 11.9566088 12.371022 11.2043718 14.1831242 7.49111338 14.2625932 3.77785495 14.2322695.0645965271 14.2113566 2.07750766 9.64188943 4.16855975 5.10797418 6.19397344.545826514L6.19397344.545826514zM79.5120735.522822331L90.8935649.522822331C89.3567926 3.98181488 87.8106435 7.4355792 86.2582431 10.8882979 91.4863943 10.8914348 96.7155873 10.9039825 101.943739 10.9029369 101.446762 12.009229 100.950827 13.115521 100.452809 14.2207674 91.4374259 14.2280869 82.4220429 14.2301782 73.4077017 14.2197218 75.4174872 9.64293508 77.4720735 5.08601564 79.5120735.522822331L79.5120735.522822331z"/>
  </g>
</svg>
