<svg xmlns="http://www.w3.org/2000/svg" width="165" height="72" viewBox="0 0 165 72">
  <g fill="#EA492D" fill-rule="evenodd" transform="translate(0 31)">
    <path d="M8.08500482 13.3400829C8.95219928 13.3401679 9.81947906 13.3406776 10.6866735 13.339998 11.2908853 13.3394882 11.4175982 13.2544491 11.6398792 12.6979139 12.4682491 10.6246908 13.2953392 8.55095792 14.1239651 6.47781977 14.3900196 5.81220335 14.5248388 5.78552772 15.0765735 6.2717208 16.3961801 7.43440443 17.7256849 8.58612898 19.0319802 9.76342474 19.3405284 10.0414799 19.6087162 10.07852 19.9868925 9.9311244 22.8785931 8.80429145 25.77584 7.69147594 28.6759028 6.58622137 28.8381124 6.52445964 29.0409385 6.56838098 29.2248216 6.56311382 29.2247363 6.75978287 29.2837836 6.97972938 29.2161181 7.1497228 27.4313853 11.639639 25.6350478 16.1250526 23.8364918 20.6096167 23.4866446 21.4820117 22.8422431 21.906443 21.8932185 21.9116253 21.3387533 21.9145987 20.7842882 21.9148535 20.229823 21.9113704 19.6974579 21.9079722 19.5846535 21.750552 19.7768988 21.2690314 20.8560495 18.5665523 21.9379307 15.8650926 23.0191292 13.1634631 23.0348297 13.1241293 23.0626468 13.0873441 23.0687905 13.0469059 23.0910613 12.9017191 23.1065057 12.7554279 23.1245101 12.6095615 22.9788542 12.6227294 22.8212523 12.6042094 22.6895902 12.6539076 21.549515 13.0846255 20.4096103 13.5164479 19.2797745 13.9728221 18.8829112 14.1331307 18.5836638 14.0670363 18.2746037 13.785413 17.5933402 13.1648223 16.8859662 12.5726064 16.2020576 11.9546493 15.9467544 11.7239985 15.8151777 11.7446424 15.6870995 12.0719711 15.2341754 13.2297274 14.7568472 14.3780537 14.3023018 15.5352154 13.9630354 16.3986052 13.3279347 16.8484379 12.4116763 16.8514113 8.85748454 16.86305 5.30312214 16.8684871 1.74901573 16.8492025.48939509 16.8424061-.214395118 15.7402099.252864239 14.5684362 1.9954447 10.1985603 3.74186494 5.83021364 5.49058906 1.4627165 5.89385197.455584068 6.52903799.0352305206 7.61646554.0325119851 8.14243096.0311527174 8.66856705.028094365 9.19453247.0336163902 9.70300554.0389685069 9.79831757.182796024 9.60615759.665166161 8.52879882 3.36866473 7.44845354 6.07088899 6.36896156 8.77353801 5.85016373 10.0722334 5.32820875 11.3695695 4.81359203 12.669879 4.63047687 13.1325397 4.76922116 13.3350706 5.27009998 13.3382989 6.20837315 13.3442457 7.14673165 13.339998 8.08500482 13.3400829M104.761386 17.1320954C104.576564 17.1320954 104.391743 17.1325202 104.206921 17.1320104 103.594006 17.1303113 103.508336 17.0059383 103.734286 16.4224727 104.019881 15.684985 104.312984 14.9504707 104.601822 14.2142573 105.200146 12.6890739 105.803846 11.1660144 106.390224 9.63624355 106.505076 9.33660997 106.59305 9.01454847 106.620782 8.69647982 106.677098 8.05006306 106.394149 7.68229619 105.757768 7.53498554 104.751317 7.30195608 103.786251 7.56268062 102.825366 7.81915746 102.75241 7.83861198 102.678686 7.94200128 102.648992 8.02245294 101.964486 9.87403045 101.2944 11.731045 100.603068 13.5800739 100.251941 14.5193279 99.8664263 15.4459238 99.4928578 16.3767673 99.2413091 17.0035596 99.0481252 17.1313308 98.3747119 17.1320104 97.9624042 17.1324352 97.5500964 17.127168 97.137874 17.1330299 96.8098709 17.1377024 96.6864858 16.9790079 96.7823098 16.6786097 96.8936636 16.3297027 97.0271175 15.9872521 97.162534 15.6465007 97.9346724 13.7037673 98.7180742 11.7654515 99.4779253 9.81804561 99.6301515 9.42802073 99.7449184 9.01047067 99.7918491 8.59606392 99.8533711 8.05346123 99.5822821 7.69444464 99.0569993 7.55979218 98.1043056 7.31554876 97.1621073 7.45929132 96.2489208 7.75042948 96.0687921 7.80785854 95.9193818 8.08778274 95.8350771 8.29677016 94.7727362 10.9299266 93.725925 13.5691998 92.6730556 16.2061792 92.3221844 17.0848608 92.2473512 17.1320954 91.2944869 17.1320954 90.9675077 17.1320954 90.6404432 17.1366829 90.3136347 17.1307361 89.8844319 17.1229203 89.7786245 16.9822361 89.9214645 16.5704629 90.0602942 16.1703285 90.2270262 15.7797939 90.3841162 15.386116 91.4627549 12.6832121 92.5557288 9.98583022 93.612182 7.27434596 93.9034085 6.5267487 94.3832112 6.07343291 95.1416117 5.81704104 96.7334165 5.27894092 98.3589261 5.01226958 100.036572 5.10019722 100.693602 5.13468863 101.321023 5.28913543 101.878816 5.68153903 102.006297 5.77116575 102.251531 5.77456392 102.412887 5.7239312 103.805109 5.28735139 105.222673 5.02620208 106.685802 5.09756363 107.107069 5.1180376 107.538576 5.17512685 107.940644 5.29652645 109.115875 5.65155019 109.70925 6.71016489 109.431505 8.02168835 109.271599 8.77667662 109.03541 9.52240488 108.762444 10.2456203 108.044318 12.1483402 107.276105 14.0322004 106.549447 15.9316921 106.008208 17.3465199 105.922196 17.1194372 104.761386 17.1320954M73.8757731 12.3726704C72.6214428 12.2914541 71.4260746 12.1321649 70.2336076 12.3737748 69.3086457 12.5610989 68.7620307 13.1685216 68.5240493 14.0635145 68.3363264 14.7695691 68.5667989 15.1805777 69.29158 15.2628984 70.3809701 15.3865917 71.4728347 15.3496366 72.5348343 15.0355608 72.6815995 14.9921492 72.8611309 14.8731283 72.9174477 14.7428085 73.2461335 13.9818735 73.5426503 13.2070909 73.8757731 12.3726704L73.8757731 12.3726704zM71.6580831 7.52586146C70.9613751 7.52586146 70.2645819 7.53129853 69.5679593 7.52407742 69.0748453 7.51889521 68.9529108 7.3481372 69.1217761 6.88598617 69.267176 6.48823045 69.4357 6.09863034 69.6014934 5.7085205 69.7758197 5.29827651 70.1034815 5.09557571 70.5405345 5.10067296 72.1458213 5.11919298 73.7528146 5.11095242 75.3555415 5.18749619 76.6644821 5.2500225 77.6142746 5.97408743 77.8741855 6.99387805 78.069076 7.75855111 77.9817848 8.52951077 77.7081361 9.24694927 76.8573247 11.4774227 75.9654703 13.6925194 75.0804421 15.9099948 74.9037266 16.3526913 74.5730783 16.6886003 74.1085495 16.7972568 73.0772682 17.0384418 72.0427444 17.3394347 70.9948239 17.4162333 69.872753 17.498469 68.7173186 17.4548025 67.6060843 17.2796269 65.9847558 17.0240846 65.3959032 16.0065028 65.771093 14.4161595 66.3352856 12.0248678 68.0514142 10.5146363 70.6158797 10.2905271 71.8261804 10.1847591 73.0528642 10.2489845 74.2716978 10.2676744 74.597909 10.2726867 74.8227498 10.2529773 74.8756535 9.87671501 74.8969003 9.72583629 74.9784745 9.58421758 75.0223334 9.43537776 75.3900996 8.18986375 74.9221576 7.54981855 73.6201287 7.52925963 72.9662557 7.51898017 72.3121267 7.52747559 71.6580831 7.52747559L71.6580831 7.52586146zM135.942356 15.1375059C137.506087 15.0827954 138.729699 14.6395042 139.361814 13.3333329 140.006642 12.0008257 140.532863 10.6067267 141.036728 9.21288263 141.36439 8.30642096 140.893206 7.56969784 139.931723 7.47123589 139.267099 7.4032725 138.567319 7.43343125 137.91319 7.56612977 137.032258 7.74478852 136.281281 8.26063062 135.911125 9.08553623 135.281742 10.4883005 134.721304 11.9248766 134.20353 13.3726667 133.940547 14.1079456 134.319918 14.7244584 135.067396 14.9667479 135.399325 15.0743849 135.757193 15.1030145 135.942356 15.1375059M135.307852 17.5762871C134.559862 17.4497053 133.915972 17.4033203 133.310822 17.2260208 131.781904 16.7781421 131.023333 15.5626169 131.400315 14.0212073 131.891466 12.0131441 132.703453 10.1123781 133.669202 8.2842479 133.883718 7.87825162 134.201823 7.51175906 134.527778 7.18128709 136.24476 5.44057485 138.387702 4.9017951 140.76069 5.05318354 141.028281 5.07025934 141.295359 5.11978766 141.558939 5.1727991 143.38736 5.54056598 144.343382 6.85659201 143.791818 8.62160116 143.200406 10.5142116 142.447978 12.3731801 141.585647 14.1607871 140.871276 15.6416243 139.556021 16.5960002 137.959012 17.0522894 137.067413 17.3070671 136.13426 17.4176775 135.307852 17.5762871M45.4242946 15.133666C46.9342693 15.0894048 48.1582226 14.6536746 48.7870943 13.3751983 49.4584596 12.0104935 49.9842544 10.5700945 50.5025402 9.13725637 50.7697041 8.39874922 50.4416156 7.80338995 49.7495154 7.56373406 48.4072114 7.09886449 46.1721143 7.42177553 45.3426351 9.1197558 44.6813385 10.4734166 44.1627114 11.9014123 43.6577368 13.3235461 43.3694115 14.1354537 43.8263461 14.8164469 44.6710138 15.0233954 44.9575472 15.0935676 45.2573918 15.1103036 45.4242946 15.133666M44.5368772 17.5176517C44.1052852 17.4583536 43.5324744 17.4309984 42.9867127 17.2955813 41.1350824 16.8362338 40.5534827 15.5927587 40.8697104 13.8771929 40.9810642 13.2731683 41.2250187 12.6887681 41.4482383 12.1106545 41.8451015 11.0827083 42.2232779 10.0432933 42.6964249 9.04983846 43.8409373 6.64707788 45.818598 5.40139395 48.4373324 5.08553411 49.4073478 4.96855214 50.3661852 4.98248463 51.3081275 5.24720202 52.9104277 5.69754441 53.6995465 6.91808188 53.2730742 8.51734533 52.947375 9.7388173 52.4540051 10.9201059 51.9791515 12.096807 51.6421036 12.9319921 51.2952428 13.7839131 50.8057127 14.5331245 49.6933692 16.2356073 48.0244273 17.1046042 46.0308102 17.3839337 45.5819818 17.4467998 45.1270951 17.4661694 44.5368772 17.5176517M114.816618 15.1211777C116.191688 15.0883004 117.424516 14.669561 118.053985 13.3882813 118.730811 12.0108333 119.2642 10.5583708 119.783083 9.11126037 120.062876 8.33087079 119.687345 7.75309704 118.880136 7.52159676 117.396955 7.09614596 115.138307 7.55438909 114.348932 9.62871661 113.957189 10.658192 113.538311 11.6773879 113.131037 12.7009166 112.512917 14.2540498 113.099466 15.1184592 114.773954 15.1211777L114.816618 15.1211777M113.817079 17.5172269C113.397433 17.4604775 112.841432 17.4291294 112.30719 17.3051811 110.541997 16.8956168 109.66499 15.5881711 110.168599 13.8523862 110.626728 12.2732569 111.279577 10.747224 111.895479 9.21728326 112.370418 8.03735391 113.155612 7.07040482 114.218465 6.35551495 116.134518 5.06658932 118.253142 4.73229441 120.480303 5.21848749 122.221348 5.59857273 123.056885 6.92819144 122.492607 8.73295917 121.897952 10.6351694 121.14416 12.5151216 120.22116 14.2811502 119.226741 16.1838702 117.412229 17.0840453 115.307599 17.3842735 114.859282 17.4482441 114.404396 17.4662544 113.817079 17.5172269M156.223963 17.5534599C155.595603 17.4311258 154.784811 17.3468512 154.023595 17.1070254 152.990607 16.7814808 152.442712 16.0072928 152.371633 14.9169902 152.341 14.4471933 152.504405 14.0891112 152.941628 13.9276982 153.497459 13.7225337 154.074536 13.5652834 154.653832 13.4394662 154.76894 13.4144047 155.047964 13.6121781 155.060934 13.7283955 155.185088 14.8390872 155.947328 15.1665008 156.889611 15.1544373 157.616355 15.1451773 158.353253 15.0283652 159.062589 14.8619399 159.620894 14.7310254 160.01699 14.3198469 160.226471 13.766455 160.443377 13.1936086 160.29755 12.795598 159.708441 12.6451441 159.038953 12.4741312 158.340795 12.4173818 157.660129 12.2851081 157.105663 12.1772162 156.538228 12.0858904 156.012519 11.8910054 154.847357 11.459098 154.418325 10.6023346 154.686427 9.39250136 155.182357 7.15557144 156.917173 5.56777682 159.274716 5.17741212 160.41957 4.98779427 161.56084 4.94276853 162.703987 5.17962093 163.963266 5.44068529 164.660571 6.113183 164.898553 7.29922905 165.0082 7.84573964 164.85768 8.1801195 164.343832 8.39131572 163.859933 8.59019358 163.354873 8.73741927 162.862698 8.91701252 162.564304 9.02583889 162.381786 8.91284976 162.322397 8.6287628 162.157713 7.84149192 161.615194 7.51280399 160.877102 7.41111378 160.092591 7.30296704 159.318916 7.3392425 158.569561 7.61704284 158.080116 7.79850508 157.719603 8.1240497 157.52019 8.60939324 157.267873 9.22352739 157.424622 9.61813981 158.07218 9.77224679 158.74474 9.93238552 159.444179 9.97681658 160.124504 10.1093452 160.664378 10.2144336 161.212187 10.326828 161.722964 10.5226475 162.878484 10.9657688 163.318694 11.8358701 163.020471 13.0366982 162.418307 15.4618017 160.771209 16.7864931 158.392163 17.2886575 157.743324 17.4256038 157.071361 17.4535537 156.223963 17.5534599M59.3573184 17.0699768C58.2928442 17.0699768 57.2190693 17.1591788 56.1661998 17.049248 54.5586092 16.8813785 53.9333213 15.6712904 54.1723266 14.2521299 54.537277 12.0852872 55.4638602 10.1118853 56.5110979 8.19676203 56.6721983 7.90222571 56.9012203 7.63971712 57.1236719 7.38383497 58.2794476 6.05430122 59.7780737 5.35147485 61.5046977 5.19677319 62.7611611 5.08420883 64.0312772 5.11521712 65.2955056 5.10128463 65.8444244 5.09525288 65.9369206 5.24392279 65.7518429 5.74022542 65.6136106 6.11079579 65.462067 6.47643881 65.324944 6.84734899 65.1562493 7.30346827 64.8329393 7.50667879 64.3465663 7.50523457 63.3943846 7.50243108 62.4416909 7.50141163 61.4900211 7.52902176 60.1364537 7.56844052 59.0841816 8.19361873 58.5140159 9.39546627 57.8980288 10.6939068 57.3969794 12.0505409 56.9152995 13.4063255 56.6237317 14.2270684 56.8581293 14.5200755 57.7129511 14.645468 57.8806218 14.6700198 58.0523029 14.675202 58.2221922 14.6754568 59.8431794 14.6780055 61.4641666 14.6734179 63.0851538 14.6803842 63.5932002 14.682593 63.6892802 14.8296488 63.5076156 15.3109994 63.3530002 15.7204789 63.1779913 16.1224823 63.0082727 16.5261848 62.8298507 16.9507011 62.5244596 17.1499188 62.0448276 17.1382801 61.1494747 17.1166167 60.2533539 17.1320784 59.3575744 17.1320784 59.357489 17.1113496 59.3574037 17.0907057 59.3573184 17.0699768M129.294311 5.35153431C130.137187 5.35153431 130.944481 5.34975028 131.751775 5.35204404 132.432526 5.35408294 132.505568 5.46299427 132.265368 6.10125542 132.136009 6.44481034 132.007761 6.78879004 131.877805 7.13209009 131.706465 7.58489616 131.375305 7.7884465 130.891492 7.78309438 130.138296 7.77468391 129.384589 7.76848226 128.632076 7.79201458 128.489919 7.7964322 128.273099 7.91154518 128.224376 8.03005634 127.569906 9.62345794 126.938218 11.2262045 126.303886 12.8277617 126.252006 12.9585063 126.220861 13.0974914 126.181012 13.2329085 125.870331 14.2870206 126.128109 14.6425541 127.236527 14.6745818 127.648323 14.6864754 128.060716 14.6865603 128.472768 14.6814631 128.796846 14.6773853 128.945573 14.8462743 128.841302 15.1325701 128.634295 15.7009139 128.405443 16.2648401 128.132136 16.8036198 128.053463 16.9586613 127.792614 17.1097099 127.613765 17.1116639 126.835056 17.1199045 126.046364 17.1385944 125.278919 17.0301078 124.088414 16.8617285 123.433176 16.0267134 123.394693 14.826395 123.36551 13.9169599 123.589413 13.0623204 123.918354 12.2293441 125.080444 9.28703918 126.247825 6.34685811 127.416144 3.40693191 127.684588 2.73137585 127.842445 2.62875113 128.55528 2.6269671 128.924839 2.6260326 129.294482 2.62280434 129.66387 2.62815645 130.170465 2.63546252 130.276785 2.77784581 130.097765 3.25724255 129.880348 3.83934896 129.636479 4.41168563 129.407116 4.98954433 129.36667 5.09148941 129.341157 5.19938128 129.294311 5.35153431M78.6049395 17.1320359C78.3916181 17.1320359 78.1782966 17.133735 77.9650604 17.1316961 77.4589766 17.1268537 77.3612753 16.9873589 77.5453291 16.5066029 77.7222153 16.0446217 77.9136926 15.5882476 78.0971491 15.1288151 79.9470729 10.4964307 81.7962288 5.8637064 83.6468352 1.23157682 83.9893442.374133743 84.0736488.319678079 84.993491.319508171 85.3206409.319423216 85.6477053.315430367 85.9746845.320867438 86.4496234.328598274 86.5581614.475399189 86.3904907.930499017 86.1804971 1.50062688 85.9468674 2.06225931 85.7213439 2.6267802 83.9081114 7.1671592 82.0790931 11.7015065 80.294275 16.2530145 79.9589336 17.1083337 79.3763953 17.2372093 78.6049395 17.1320359M35.3954121 17.1320954C35.2249256 17.1320954 35.0544391 17.1323502 34.8839525 17.1320104 34.2293116 17.1307361 34.1613047 17.0302353 34.4094403 16.4045473 34.8935093 15.1843497 35.3814182 13.9655962 35.8681325 12.746418 37.4021699 8.90444779 38.9360366 5.06247754 40.4708419 1.2208471 40.8065246.380734687 40.9007274.319652593 41.8225321.319482684 42.1351761.31939773 42.4477347.316764149 42.7602933.320247273 43.288648.326279023 43.3824241.462460659 43.1909467.97159138 42.9921311 1.50026157 42.7821375 2.02476901 42.5728264 2.54944636 40.7466239 7.12584596 38.904721 11.6962138 37.1055677 16.2831477 36.7642533 17.153164 36.1419519 17.2037118 35.3954121 17.1320954M144.570254 17.1320784C144.357017 17.1320784 144.143696 17.1334377 143.93046 17.1317386 143.390757 17.1275758 143.291263 16.9975958 143.488714 16.4889748 143.866805 15.5148047 144.262388 14.5474308 144.650463 13.5771685 145.505626 11.4387005 146.379902 9.30745368 147.205627 7.15777176 147.512042 6.36005151 148.023928 5.8763221 148.840352 5.64456695 150.521325 5.16754893 152.23643 4.99432725 153.976109 5.01556581 154.422207 5.02100288 154.546702 5.19923686 154.399083 5.61160471 154.246857 6.03671569 154.066387 6.45205694 153.891975 6.86901232 153.703655 7.31909985 153.317714 7.39776747 152.880746 7.42180952 151.976093 7.47150774 151.072804 7.54626747 150.169004 7.61193709 149.749443 7.64243566 149.537657 7.87937302 149.385431 8.26761386 148.353979 10.8977969 147.300683 13.5194846 146.252933 16.143381 145.87561 17.0884969 145.807859 17.1320784 144.78349 17.1320784L144.570254 17.1320784"/>
  </g>
</svg>
