<svg xmlns="http://www.w3.org/2000/svg" width="143" height="72" viewBox="0 0 143 72" xmlns:xlink="http://www.w3.org/1999/xlink">
  <defs>
    <polygon id="a" points="0 .033 0 11.378 32.722 11.378 32.722 .033 0 .033"/>
    <polygon id="c" points="16.395 9.718 16.395 .039 .045 .039 .045 9.718 16.395 9.718"/>
    <polygon id="e" points="0 21.967 126.228 21.967 126.228 .098 0 .098"/>
  </defs>
  <g fill="none" fill-rule="evenodd" transform="translate(0 20)">
    <path fill="#231F1F" d="M114,8.75506173 C114,8.75506173 122.116041,3.4217284 130.627986,1.24888889 C139.139932,-0.923950617 142.205519,0.180641975 142.703072,1.24888889 C144.336177,4.75506173 136.269625,11.5204938 129.341297,15.9155556 C129.341297,15.9155556 134.141638,10.1871605 130.974403,7.71802469 C127.807167,5.24888889 117.266212,7.07604938 114,8.75506173"/>
    <path fill="#ED1C24" d="M130.331058,15.0925136 C130.331058,15.0925136 134.472713,9.95068642 131.488881,7.49606914 C129.077328,5.51226667 121.588201,5.79424198 115.616577,7.95779753 C115.616577,7.95779753 126.08528,1.78001975 134.389078,1.33122963 C142.916266,0.870291358 142.505119,6.33527901 130.331058,15.0925136"/>
    <path fill="#FFFFFF" d="M137.110922,0.557530864 C137.110922,0.557530864 140.606758,0.165135802 141.936007,1.20582716 C142.772157,1.86044444 142.307167,3.39703704 141.936007,3.94024691 C141.936007,3.94024691 142.421287,0.85382716 137.110922,0.557530864"/>
    <g transform="translate(0 9)">
      <g transform="translate(0 .066)">
        <mask id="b" fill="white">
          <use xlink:href="#a"/>
        </mask>
        <path fill="#000000" d="M20.4968096,0.0383919643 L20.4968096,5.85925804 C20.9215241,5.51108839 21.2596336,5.24158839 21.5892329,4.96246339 C23.0708277,3.70807054 24.5415093,2.44100804 26.0333164,1.19840089 C26.9568352,0.429186607 28.0227264,0.0110883929 29.2583232,0.03348125 C30.4022088,0.05410625 31.5467954,0.0379008929 32.7215184,0.0379008929 L32.7215184,11.341383 L26.6526667,11.341383 L26.6526667,5.64308839 C26.2106312,6.01974018 25.8602067,6.30554375 25.5241997,6.60686518 C23.8455662,8.11239196 22.1720389,9.62332054 20.4920037,11.1273741 C20.3759632,11.2311866 20.2219766,11.3636777 20.0847104,11.3648562 C18.2096389,11.3805705 16.3343672,11.3754634 14.4051302,11.3754634 L14.4051302,5.59476696 C13.3653706,6.43017768 12.4087118,7.19605268 11.4550565,7.96565982 C10.1111285,9.05024018 8.77210642,10.1407134 7.42227124,11.2180259 C7.30512934,11.3116241 7.1229086,11.3707491 6.97062412,11.3713384 C4.69386609,11.3809634 2.41700793,11.378017 -2.00242575e-05,11.378017 C0.297740679,11.1239366 0.501687738,10.9327134 0.723156022,10.7634902 C4.90442115,7.56995446 9.08588653,4.37651696 13.2722578,1.18946339 C14.2981005,0.408561607 15.4712216,0.0330883929 16.7717971,0.0375080357 C17.9977823,0.04173125 19.2237674,0.0383919643 20.4968096,0.0383919643" mask="url(#b)"/>
      </g>
      <path fill="#000000" d="M73.7214052 7.34940446C72.2187849 7.34940446 70.7458005 7.33771696 69.2733168 7.35824375 68.9357078 7.36295804 68.6942153 7.55860089 68.6619762 7.94055625 68.6288361 8.33321696 68.852507 8.50715446 69.1896154 8.58808304 69.3317876 8.62216339 69.4853737 8.61794018 69.6338535 8.61833304 70.6292594 8.62069018 71.6246652 8.62019911 72.620071 8.61941339 73.523966 8.61862768 73.7802765 8.34068125 73.7214052 7.34940446L73.7214052 7.34940446zM63.8040914 4.51071696L63.8040914 1.66947589 64.2619461 1.66947589C67.952717 1.66967232 71.6437884 1.64168125 75.3337583 1.69216339 76.1392341 1.70316339 76.9793518 1.89468125 77.7355679 2.17763661 79.1271536 2.69827054 79.8057757 3.79738661 79.8348109 5.24467232 79.8569377 6.35056518 79.8761609 7.46421696 79.7720348 8.56303839 79.6163462 10.207342 78.5506552 10.9726277 77.0251072 11.2469402 76.1677686 11.4010384 75.2828967 11.4593777 74.4095388 11.4671366 71.8830782 11.4894312 69.3557166 11.4882527 66.8296566 11.4424848 66.1120873 11.4295205 65.3765964 11.3035116 64.6864603 11.105217 63.1022412 10.650092 62.6460887 9.65783304 62.8293106 8.06047589 62.9878026 6.67850268 63.8555538 5.90084196 65.3050096 5.68968125 65.7617629 5.62309196 66.2277274 5.59077946 66.689687 5.58861875 68.8509051 5.57830625 71.0121232 5.58410089 73.1733412 5.58410089L73.7075884 5.58410089C73.7642571 4.97969018 73.5832378 4.70439554 73.0464876 4.60038661 72.7402166 4.54106518 72.4224316 4.51523482 72.1097528 4.51435089 69.5329313 4.50786875 66.9561098 4.51071696 64.3791881 4.51071696L63.8040914 4.51071696zM97.82174 5.77975357C99.328265 5.77975357 100.803452 5.79428929 102.278038 5.77219107 102.817792 5.76403929 103.147391 5.24124464 102.850732 4.85997679 102.699649 4.66600357 102.352328 4.53410179 102.088108 4.524575 101.043142 4.48715536 99.9960739 4.50905714 98.9497064 4.50915536 97.975326 4.50925357 97.7645707 4.73298571 97.82174 5.77975357M97.8220404 7.54299464C97.8032176 8.25691429 98.0720432 8.51973571 98.7880105 8.52042321 101.646874 8.52336964 104.505737 8.5217 107.3646 8.5217L107.943001 8.5217 107.943001 11.3394679C107.842179 11.3520393 107.732946 11.377575 107.623714 11.3774768 103.684742 11.3733518 99.7450699 11.4034054 95.8069994 11.3407446 94.4269276 11.3188429 93.0832999 10.9328607 92.2910402 9.68671786 91.9667473 9.17669107 91.7830248 8.51816429 91.7393719 7.91306607 91.6660831 6.89536964 91.6812014 5.85842321 91.7934374 4.84396786 91.9885738 3.07856607 93.1918314 2.19512857 94.8568484 1.88241429 95.711784 1.72193214 96.5977573 1.66997679 97.4706146 1.66153036 99.8636135 1.63845 102.257413 1.64424464 104.650312 1.68028929 105.693876 1.69600357 106.729731 1.86247679 107.650046 2.3947 108.747275 3.0292625 108.846495 4.08280714 108.73516 5.16846786 108.577269 6.708075 107.447901 7.34764643 106.01907 7.41983393 103.53386 7.54535179 101.040239 7.51078036 98.5500222 7.54260179 98.3190424 7.54554821 98.0879625 7.54299464 97.8220404 7.54299464"/>
      <g transform="translate(109.833 1.735)">
        <mask id="d" fill="white">
          <use xlink:href="#c"/>
        </mask>
        <path fill="#000000" d="M6.21173482,3.25491964 L6.21173482,5.68984821 C6.21173482,6.88030357 6.20232341,8.07085714 6.21774209,9.26101786 C6.22204731,9.58885714 6.1387464,9.72036607 5.77530613,9.71692857 C4.01337175,9.70052679 2.25103688,9.70013393 0.489102492,9.71673214 C0.124360649,9.72016964 0.0460658035,9.58728571 0.0471671377,9.26072321 C0.0570791449,6.34179464 0.0593819345,3.42276786 0.0450645907,0.503839286 C0.0431622862,0.130330357 0.16731268,0.0384017857 0.531453796,0.0396785714 C3.87280146,0.0520535714 7.21464973,0.0195446429 10.5553967,0.0622678571 C11.7868885,0.0779821429 13.0287929,0.160089286 14.207721,0.610991071 C15.5727747,1.13309821 16.2371795,2.15069643 16.2915454,3.52913393 C16.3665362,5.43282143 16.3517183,7.33984821 16.3949707,9.24500893 C16.4031806,9.60899107 16.2926467,9.72095536 15.9174922,9.717125 C14.1887981,9.69934821 12.4597035,9.69866071 10.7311095,9.71741964 C10.3432397,9.72154464 10.2120808,9.62382143 10.2198902,9.22683929 C10.2450207,7.95535714 10.2342076,6.68308929 10.2282003,5.41111607 C10.2218927,4.06636607 9.4576669,3.29508929 8.08880868,3.25766964 C7.49168533,3.24136607 6.89356077,3.25491964 6.21173482,3.25491964" mask="url(#d)"/>
      </g>
      <path fill="#000000" d="M49.7119604,8.42380982 L49.7119604,11.3464705 C49.5644818,11.3577652 49.4221093,11.3783902 49.279837,11.3781938 C45.7730889,11.3734795 42.2659404,11.390667 38.759693,11.346667 C37.5665476,11.3316402 36.3941274,11.0919973 35.3924139,10.3755241 C34.3469474,9.62791696 34.0228548,8.52369375 33.9812044,7.34541696 C33.9521692,6.52493482 33.9862105,5.67587232 34.1718353,4.87994375 C34.5550996,3.23681875 35.8097194,2.43165804 37.3866297,2.07779196 C38.0578428,1.92722946 38.7618957,1.86191696 39.4517313,1.85720268 C42.7258976,1.83510446 46.0002641,1.84718482 49.2745305,1.84816696 C49.3714479,1.84816696 49.4684655,1.85955982 49.5986231,1.86780982 L49.5986231,4.80274732 L49.0636751,4.80274732 C46.6037952,4.80274732 44.1440155,4.80215804 41.6841356,4.80304196 C40.868047,4.80333661 40.3848617,5.11526518 40.2391852,5.90844375 C40.1459723,6.41601518 40.1702017,6.97740804 40.2896464,7.48095268 C40.4430322,8.12769375 40.9685688,8.42292589 41.6793298,8.42331875 C44.1558298,8.42459554 46.6323298,8.42380982 49.1088298,8.42380982 L49.7119604,8.42380982"/>
      <polygon fill="#000000" points="51.138 .124 57.189 .124 57.189 8.421 61.844 8.421 61.844 11.345 51.138 11.345"/>
      <path fill="#000000" d="M91.0015481,1.89042857 C91.0015481,2.78083929 91.0141634,3.6568125 90.9826252,4.5313125 C90.9794213,4.62196429 90.7153013,4.77458929 90.5693245,4.77792857 C89.6061577,4.80032143 88.64219,4.78873214 87.6784225,4.79079464 C87.5174275,4.79108929 87.3565326,4.80425 87.1441753,4.81377679 L87.1441753,11.3523929 L81.1462095,11.3523929 C81.1367981,11.1815 81.1207787,11.0241607 81.1206785,10.8668214 C81.1190766,8.45458036 81.1181755,6.04233929 81.1201779,3.63009821 C81.1209789,2.54149107 81.734422,1.87402679 82.8388599,1.86322321 C85.4638398,1.8376875 88.08912,1.85055357 90.7142,1.84976786 C90.7931957,1.84976786 90.8722915,1.87147321 91.0015481,1.89042857"/>
      <path fill="#939598" d="M38.7905404 21.1296054C39.9754758 21.1296054 41.1191612 21.1386411 42.2621458 21.1155607 42.3758836 21.1133018 42.580131 20.9176589 42.5824338 20.8085429 42.6061626 19.6678821 42.6047609 18.5265339 42.5856377 17.385775 42.5837354 17.2720429 42.4210383 17.0650071 42.3297277 17.0632393 41.1573074 17.0412393 39.9841863 17.0487036 38.7905404 17.0487036L38.7905404 21.1296054zM37.7573888 21.9290696L37.7573888 16.2529714C38.7499912 16.2529714 39.7240712 16.2428554 40.6977507 16.2565071 41.3721677 16.2658375 42.058399 16.2399089 42.7167966 16.3541321 43.3977214 16.4722839 43.6266988 16.8555161 43.6270993 17.5337839 43.6275999 18.5599268 43.5777395 19.5891143 43.6434191 20.6113286 43.6927789 21.3806411 43.0815384 21.9003911 42.4284473 21.9166946 40.8877809 21.9552929 39.3453124 21.9290696 37.7573888 21.9290696L37.7573888 21.9290696zM84.3797265 17.043675L84.3797265 21.0848 88.1053397 21.0848C88.1053397 19.801925 88.1121479 18.5648179 88.0922238 17.3281036 88.0906218 17.2318536 87.9031948 17.0578179 87.7997695 17.05605 86.6733049 17.0363089 85.5464398 17.043675 84.3797265 17.043675M89.1291799 19.1149161C89.1291799 19.6201304 89.1292801 20.1253446 89.1291799 20.6306571 89.1290798 21.4514339 88.7407093 21.8962464 87.8977882 21.9208982 86.7524007 21.9543893 85.6046103 21.9508536 84.4589224 21.9214875 83.7014048 21.9021393 83.2372425 21.3799339 83.23514 20.6331125 83.2324367 19.6388893 83.2606709 18.6437821 83.2268299 17.6507375 83.1953918 16.7241839 83.7208283 16.2960679 84.6072021 16.2628714 85.6856084 16.2224071 86.7671186 16.2367464 87.8466263 16.2584518 88.7133762 16.2758357 89.1289797 16.7172107 89.1291799 17.5501661L89.1291799 19.1149161M109.361369 16.2529911L109.361369 17.0363482C108.116961 17.0363482 106.892278 17.0347768 105.667594 17.0368393 104.691312 17.0384107 104.795638 16.9455 104.793135 17.9062321 104.790732 18.8352411 104.803347 19.7644464 104.787128 20.6931607 104.781221 21.0291518 104.893857 21.1577143 105.245283 21.1519196 106.24199 21.1356161 107.239098 21.1384643 108.235906 21.1505446 108.557595 21.154375 108.682947 21.0403482 108.672034 20.72125 108.654112 20.2024821 108.667128 19.6826339 108.667128 19.1051339L106.802069 19.1051339 106.802069 18.305375 108.216482 18.305375 109.668241 18.305375C109.668241 19.2378214 109.699078 20.1448304 109.654824 21.0482054 109.633699 21.481625 108.986515 21.916125 108.427237 21.924375 107.297669 21.9410714 106.1673 21.9467679 105.038032 21.9228036 104.381436 21.9087589 103.714729 21.39225 103.766992 20.6139018 103.835675 19.5914911 103.783912 18.5613214 103.783712 17.5344911 103.783512 16.7908125 104.215435 16.3286161 104.984066 16.2549554 105.082886 16.2455268 105.183308 16.2529911 105.283028 16.2529911L109.361369 16.2529911M77.1584387 17.8508491L77.1584387 21.9050366 76.1876627 21.9050366 76.1876627 16.2899295C76.7184057 16.1853312 77.1803653 16.2219652 77.5776466 16.698992 78.5016659 17.8087152 79.4616288 18.8897598 80.4150838 19.975617 80.5559544 20.1360991 80.740478 20.2596527 81.0089031 20.4892777L81.0089031 16.2866884 82.0092149 16.2866884 82.0092149 21.8913848C81.4503379 21.9945098 80.9898801 21.9510991 80.5924987 21.4684741 79.6848993 20.366117 78.7318447 19.299608 77.7891027 18.2253402 77.6403225 18.0557241 77.4489907 17.9219562 77.2773828 17.7715902 77.2377348 17.7980098 77.1980868 17.8244295 77.1584387 17.8508491M97.7650814 17.0423982L97.7650814 21.1303714C98.8890429 21.1303714 99.9805652 21.1160321 101.071286 21.1377375 101.480282 21.1458893 101.577299 20.9851125 101.567888 20.6170054 101.546362 19.7714786 101.568489 18.9249696 101.559478 18.0789518 101.547063 16.9049964 101.740797 17.0517286 100.506602 17.0435768 99.6000042 17.0375857 98.6932057 17.0423982 97.7650814 17.0423982M96.6949851 19.0749429C96.6947848 18.5696304 96.6949851 18.0643179 96.6947848 17.5590054 96.6944844 16.7100411 97.053219 16.2899786 97.9190679 16.2624786 99.0643553 16.2262375 100.212646 16.2278089 101.358034 16.2636571 101.994605 16.2834964 102.616658 16.7008089 102.595733 17.5430946 102.570302 18.5694339 102.566297 19.5974429 102.596834 20.6233893 102.623066 21.5034875 101.949751 21.9083268 101.324593 21.9223714 100.211845 21.9475143 99.0977958 21.94555 97.9849477 21.9245321 97.0904641 21.9077375 96.6955858 21.4925857 96.6951853 20.6396929 96.6949851 20.1180768 96.6951853 19.5965589 96.6949851 19.0749429M32.2788722 17.0362205L32.2788722 18.293167 36.5072945 18.293167 36.5072945 18.9905866 32.2829772 18.9905866 32.2829772 21.1233098C32.4399674 21.1309705 32.5992603 21.1450152 32.7586534 21.1453098 33.871902 21.1472741 34.9852507 21.1534616 36.0983991 21.1418723 36.4046701 21.1387295 36.5569546 21.2118009 36.5518484 21.5494616 36.5471427 21.8602116 36.4114784 21.9350509 36.1253318 21.9334795 34.6133001 21.9253277 33.1011683 21.9233634 31.5892368 21.934658 31.2694494 21.9371134 31.1483027 21.8369348 31.1507056 21.5138098 31.1623196 19.9002473 31.1622195 18.2864884 31.1507056 16.6729259 31.1485029 16.3540241 31.2610392 16.2454973 31.5850317 16.2479527 33.0970634 16.2596402 34.6091951 16.2571848 36.1211267 16.2495241 36.402868 16.2480509 36.5475432 16.3142473 36.5518484 16.6292205 36.556454 16.9627562 36.4128801 17.0436848 36.1025041 17.0409348 34.8422775 17.0296402 33.5818506 17.0362205 32.2788722 17.0362205"/>
      <polygon fill="#939598" points="57.036 18.3 61.261 18.3 61.261 18.981 57.045 18.981 57.045 21.14 61.271 21.14 61.271 21.896 56.029 21.896 56.029 16.28 61.269 16.28 61.269 17.02 57.036 17.02"/>
      <path fill="#939598" d="M118.939151,16.2535804 L118.939151,17.0215179 L114.708426,17.0215179 L114.708426,18.2882857 L118.920028,18.2882857 L118.920028,19.0015179 L117.458758,19.0015179 C116.677211,19.0015179 115.895564,19.0109464 115.114318,18.997 C114.804443,18.9915 114.652959,19.0745893 114.664573,19.4088125 C114.683796,19.9613661 114.669779,20.5150982 114.669779,21.1259911 L118.929039,21.1259911 L118.929039,21.9297768 L114.932998,21.9297768 C113.663561,21.9297768 113.663561,21.9297768 113.663561,20.6700804 C113.663561,19.3489018 113.664962,18.0277232 113.662359,16.7065446 C113.661859,16.4643482 113.653949,16.2484732 114.008879,16.2501429 C115.63605,16.2579018 117.263321,16.2535804 118.939151,16.2535804"/>
      <mask id="f" fill="white">
        <use xlink:href="#e"/>
      </mask>
      <path fill="#939598" d="M8.95795155 19.0385446L12.7410343 19.0385446 12.7410343 17.0787768 8.95795155 17.0787768 8.95795155 19.0385446zM8.9134977 19.8772946L8.9134977 21.9059107C8.73377999 21.9144554 8.57368605 21.9115089 8.416796 21.9318393 8.02502141 21.9825179 7.89646568 21.8321518 7.90167198 21.4389018 7.92219685 19.8741518 7.92209673 18.3088125 7.90167198 16.7440625 7.89646568 16.3510089 8.0245208 16.2390446 8.41669588 16.2451339 9.74580594 16.2657589 11.0755167 16.2486696 12.4050273 16.2544643 13.3861158 16.2587857 13.8046227 16.677375 13.8047229 17.6331964 13.804823 17.9591696 13.8052235 18.2852411 13.8047229 18.6113125 13.8036215 19.4470179 13.3710976 19.8712054 12.4995418 19.8760179 11.4858138 19.8815179 10.4720857 19.8772946 9.45835773 19.8772946 9.29616125 19.8773929 9.13406489 19.8772946 8.9134977 19.8772946L8.9134977 19.8772946zM16.0426338 19.0452232L19.8104982 19.0452232 19.8104982 17.0803482 16.0426338 17.0803482 16.0426338 19.0452232zM15.0306079 16.2536786C16.5946025 16.2536786 18.1380722 16.2143929 19.6778375 16.2712589 20.3816901 16.2972857 20.9633948 16.7209821 20.8879033 17.5435268 20.8582674 17.8668482 20.8604701 18.19675 20.8874027 18.5205625 20.9660981 19.4650893 20.3825912 19.8430179 19.4998218 19.8690446 18.3569374 19.9028304 17.2121506 19.8772946 16.0099943 19.8772946L16.0099943 21.9049286 15.0306079 21.9049286 15.0306079 16.2536786zM73.9261332 16.2862562C74.9541785 16.2047384 74.9541785 16.2047384 74.9541785 17.0995687L74.9541785 21.1094616C74.9541785 22.0146045 74.9541785 22.0146045 73.94826 21.8773009 73.94826 21.0909973 73.9310391 20.2963455 73.9557691 19.5029705 73.9675834 19.1228812 73.8548468 18.9843991 73.4497561 18.9932384 72.3415136 19.0173991 71.23237 19.0015866 70.0827774 19.0015866L70.0827774 21.897042 69.0916768 21.897042 69.0916768 16.279283 70.0631536 16.279283 70.0631536 18.2695955 73.9261332 18.2695955 73.9261332 16.2862562zM3.54880898 17.5432616C3.49163973 17.5286277 3.43447047 17.5138955 3.37730122 17.4992616 2.97671596 18.2877259 2.57623081 19.076092 2.1467105 19.9214223L4.75276744 19.9214223C4.33075622 19.0877795 3.9397826 18.3155205 3.54880898 17.5432616M6.78272651 21.8867884C5.84198691 22.0140741 5.81965986 22.0239937 5.44390468 21.2026277 5.28290965 20.8507259 5.08707241 20.7342438 4.69910243 20.7455384 3.70419722 20.7746098 2.7078903 20.7552616 1.69035768 20.7552616 1.3306219 21.3293241 1.257233 22.3000741.120656161 21.8532973.318595943 21.450717.516836089 21.0342884.726590182 20.6236545 1.41562487 19.2742884 2.10786344 17.9263955 2.80130346 16.5791902 3.0234726 16.1474402 3.88121165 16.0709313 4.09957617 16.4937438 5.0159863 18.2678866 5.90236004 20.0570562 6.79824531 21.8414134 6.80335149 21.8516277 6.7883333 21.871467 6.78272651 21.8867884M125.523237 16.2537375L125.523237 17.0303179 121.147937 17.0303179C121.317542 17.2535589 121.389329 17.4160054 121.515282 17.5034161 122.847296 18.426925 124.189221 19.3366839 125.52534 20.2545946 125.829909 20.4637911 126.170221 20.6705321 126.051077 21.1212375 125.941344 21.5367821 125.642982 21.7717107 125.218568 21.8367286 124.912397 21.883675 124.601521 21.9234518 124.292446 21.9257107 122.965439 21.9352375 121.638231 21.9297375 120.27568 21.9297375L120.27568 21.1566929 124.994597 21.1566929C125.021529 21.1184875 125.048462 21.0802821 125.075495 21.0420768 124.960856 20.9159696 124.86504 20.7640321 124.728575 20.6677821 123.390353 19.7238446 122.052533 18.7790232 120.696791 17.8597375 120.393223 17.6537821 120.139616 17.4040232 120.267671 17.0826661 120.379907 16.8010857 120.674664 16.5723446 120.929973 16.3702196 121.053723 16.2723 121.271587 16.2595321 121.447099 16.2584518 122.790427 16.2499071 124.133854 16.2537375 125.523237 16.2537375M63.606392 17.0363089L63.606392 21.1463804 66.3981739 21.1463804C66.7468963 21.1463804 67.0960192 21.1560054 67.4442411 21.1434339 67.722378 21.1334161 67.8748627 21.2003 67.8787675 21.5187107 67.8827723 21.847925 67.7477087 21.9376929 67.433428 21.93455 66.2546 21.9224696 65.0752713 21.9410321 63.8964433 21.9260054 62.9801333 21.9144161 62.5752428 21.5005411 62.5747422 20.6251571 62.5741415 19.5663089 62.6144904 18.5054964 62.5610256 17.4493 62.5235803 16.7098446 63.0421084 16.2821214 63.7447596 16.2628714 64.9892672 16.2286929 66.2354768 16.2596304 67.4808855 16.2486304 67.7948658 16.2458804 67.8738615 16.3785679 67.8774659 16.6613268 67.8814707 16.9781661 67.7274842 17.0447554 67.4469444 17.0397464 66.8161803 17.0284518 66.1849155 17.0363089 65.5539512 17.0363089L63.606392 17.0363089M51.5069849 21.9297277L51.5069849 17.0362991C50.8120431 17.0362991 50.1543463 17.0265759 49.4972503 17.0405223 49.1843713 17.0471027 48.9981457 16.9976027 49.0046536 16.6209509 49.0111615 16.2492098 49.2255212 16.2504866 49.4948474 16.2510759 51.17278 16.2549062 52.8508128 16.2526473 54.5287454 16.2540223 54.6411816 16.2541205 54.7536178 16.2678705 54.8830746 16.2764152L54.8830746 17.0254955 52.5064957 17.0254955 52.5064957 19.7009509C52.5064957 20.2550759 52.4769599 20.8111652 52.5157068 21.3626384 52.5477457 21.8193348 52.3902549 22.0012277 51.9278948 21.9322812 51.8145575 21.9153884 51.6964144 21.9297277 51.5069849 21.9297277" mask="url(#f)"/>
      <polygon fill="#939598" points="22.099 21.905 22.099 16.292 23.062 16.292 23.062 21.132 27.344 21.132 27.344 21.905" mask="url(#f)"/>
      <path fill="#939598" d="M91.4157799,21.1463705 C92.7178572,21.1463705 93.9455444,21.1501027 95.1732316,21.1437188 C95.4785014,21.1421473 95.7261014,21.1324241 95.7159891,21.5617188 C95.705977,21.9813884 95.4408558,21.9298259 95.175234,21.9298259 C93.6144433,21.9297277 92.0536526,21.9297277 90.4513115,21.9297277 L90.4513115,16.3119687 C90.4621246,16.3037187 90.4862539,16.2697366 90.5128861,16.2677723 C91.4157799,16.2012812 91.4157799,16.2017723 91.4157799,17.086683 L91.4157799,21.1463705" mask="url(#f)"/>
      <polygon fill="#939598" points="111.192 21.912 112.144 21.912 112.144 16.284 111.192 16.284" mask="url(#f)"/>
      <polygon fill="#939598" points="28.695 21.891 29.64 21.891 29.64 16.274 28.695 16.274" mask="url(#f)"/>
    </g>
  </g>
</svg>
