<svg xmlns="http://www.w3.org/2000/svg" width="185" height="72" viewBox="0 0 185 72" xmlns:xlink="http://www.w3.org/1999/xlink">
  <defs>
    <polygon id="b" points="99.681 3.048 105.77 3.057 105.77 .303 98.369 .303"/>
    <filter id="a" width="200%" height="200%" x="-50%" y="-50%" filterUnits="objectBoundingBox">
      <feOffset dy=".5" in="SourceAlpha" result="shadowOffsetOuter1"/>
      <feGaussianBlur stdDeviation=".5" in="shadowOffsetOuter1" result="shadowBlurOuter1"/>
      <feColorMatrix values="0 0 0 0 0 0 0 0 0 0 0 0 0 0 0 0 0 0 0.8 0" in="shadowBlurOuter1"/>
    </filter>
    <polygon id="d" points="100.877 7.769 95.979 7.769 95.979 10.624 102.238 10.624"/>
    <filter id="c" width="200%" height="200%" x="-50%" y="-50%" filterUnits="objectBoundingBox">
      <feOffset dy=".5" in="SourceAlpha" result="shadowOffsetOuter1"/>
      <feGaussianBlur stdDeviation=".5" in="shadowOffsetOuter1" result="shadowBlurOuter1"/>
      <feColorMatrix values="0 0 0 0 0 0 0 0 0 0 0 0 0 0 0 0 0 0 0.8 0" in="shadowBlurOuter1"/>
    </filter>
    <path id="f" d="M103.705578,4.17337181 L100.196882,4.17337181 L101.373667,6.6438771 L103.979095,6.6438771 L103.979095,7.76932951 L101.909707,7.76932951 L103.21721,10.5143354 L103.705578,10.5143354 C104.78838,10.5143354 105.666125,9.62879649 105.666125,8.53650375 L105.666125,6.15120345 C105.666125,5.05891071 104.78838,4.17337181 103.705578,4.17337181"/>
    <filter id="e" width="200%" height="200%" x="-50%" y="-50%" filterUnits="objectBoundingBox">
      <feOffset dy=".5" in="SourceAlpha" result="shadowOffsetOuter1"/>
      <feGaussianBlur stdDeviation=".5" in="shadowOffsetOuter1" result="shadowBlurOuter1"/>
      <feColorMatrix values="0 0 0 0 0 0 0 0 0 0 0 0 0 0 0 0 0 0 0.8 0" in="shadowBlurOuter1"/>
    </filter>
    <path id="h" d="M99.1216228,4.17337181 L97.6663686,4.17337181 L97.6663686,3.0479194 L98.5779636,3.0479194 L97.3037115,0.409968758 C96.5333372,0.676563729 95.9793382,1.41315861 95.9793382,2.28074516 L95.9793382,4.66604547 C95.9793382,5.75833821 96.8570838,6.6438771 97.9398852,6.6438771 L100.305755,6.6438771 L99.6510238,5.26934286 L99.1216228,4.17337181 Z"/>
    <filter id="g" width="200%" height="200%" x="-50%" y="-50%" filterUnits="objectBoundingBox">
      <feOffset dy=".5" in="SourceAlpha" result="shadowOffsetOuter1"/>
      <feGaussianBlur stdDeviation=".5" in="shadowOffsetOuter1" result="shadowBlurOuter1"/>
      <feColorMatrix values="0 0 0 0 0 0 0 0 0 0 0 0 0 0 0 0 0 0 0.8 0" in="shadowBlurOuter1"/>
    </filter>
  </defs>
  <g fill="none" fill-rule="evenodd" transform="translate(0 29)">
    <g fill="#2C2D2E">
      <path d="M.374072247 25.611551C.261047345 25.5825941.148059646 25.5536743-.0000111611153 25.5157589.223694809 25.093597.436276868 24.6873447.65339778 24.2835458 1.3456102 22.9963553 2.03901314 21.7098712 2.73282532 20.4235729 3.41789463 19.1534072 4.10493573 17.8843566 4.78929817 16.6138192 5.1926237 15.8651017 5.59323336 15.1148973 5.99321056 14.3643956 6.06709715 14.2257442 6.16736118 14.1650424 6.33302934 14.1653398 8.49650009 14.1695402 10.660008 14.1670868 12.823516 14.1663062 12.8915616 14.1662691 12.9596072 14.1663062 13.0626987 14.1663062 12.9568913 13.9639793 12.8669699 13.776707 12.7633948 13.5972408 12.5195616 13.1746328 12.2630791 12.7592362 12.0259054 12.3329854 11.9670863 12.2272684 11.8978874 12.2252983 11.803762 12.2252983 10.4089201 12.2255957 9.01411545 12.2242946 7.61931077 12.2234025 7.45944638 12.2233282 7.299582 12.2234025 7.07375542 12.2234025 7.17729337 11.9927505 7.2476084 11.8008689 7.3455658 11.6242649 7.71938878 10.9501887 8.10798164 10.2842532 8.48027927 9.60935915 9.0825703 8.51747015 9.67615566 7.42078598 10.2738706 6.32636929 10.643378 5.64980255 11.0067095 4.96974164 11.3870803 4.29934544 11.541885 4.02650329 12.0920908 4.05542307 12.2420962 4.33220544 12.6928937 5.16415096 13.1406033 5.99780638 13.589429 6.83079271 14.1308547 7.83569933 14.6729873 8.84019706 15.213297 9.84569843 15.66402 10.6844464 16.1118412 11.5247184 16.5621923 12.3636523 17.2156384 13.5808851 17.8707215 14.7971886 18.5240188 16.0144958 18.887648 16.6920662 19.2479288 17.371458 19.6117068 18.0489912 20.2530617 19.2433633 20.8962025 20.4368061 21.5380782 21.6309551 21.9752964 22.4443518 22.4124401 23.25786 22.8480584 24.0721489 23.0761173 24.4983625 23.3011626 24.9262117 23.5265427 25.353875 23.5517668 25.4017525 23.5704803 25.4530127 23.5954812 25.5101831 23.5243477 25.5476896 23.4637428 25.5796203 23.4031752 25.611551L19.831618 25.611551C19.7012562 25.5425599 19.5146423 25.5965707 19.4439552 25.3898575 19.389675 25.2312076 19.2762037 25.0927792 19.189147 24.9452809 18.7419582 24.187605 18.2926117 23.4311557 17.8483249 22.6717698 17.4750227 22.0337504 17.1094962 21.391196 16.7370125 20.7526933 16.3494242 20.0882818 15.9555484 19.4275503 15.5693738 18.762321 15.4891626 18.6241157 15.3899774 18.5767215 15.2270251 18.5784314 14.0951392 18.5903264 12.9631044 18.5934488 11.8311068 18.5934117 10.6664071 18.5933745 9.50170741 18.5853454 8.33700774 18.586572 8.28380642 18.5866092 8.20936178 18.6297287 8.18078932 18.6753015 7.89246049 19.1355275 7.60807525 19.5983183 7.32938218 20.0644174 6.33247129 21.7316168 5.34132697 23.4022731 4.33902154 25.0662385 4.21185923 25.2774123 4.13994443 25.5580606 3.83401824 25.611551L.374072247 25.611551zM18.9749317 15.1830112L28.6390073 15.1830112C28.644439 15.1100799 28.6516937 15.0572213 28.6517681 15.0043628 28.6525494 14.366269 28.6547816 13.7282124 28.6505776 13.090193 28.6494987 12.9249265 28.6327198 12.7591768 28.6133367 12.5948395 28.5933211 12.4251496 28.3609467 12.2693991 28.1214663 12.2640463 27.8859668 12.2588051 27.6502812 12.2616673 27.41467 12.2616301 24.2774291 12.2614071 21.1402254 12.2612956 18.0029845 12.2610354 17.9161882 12.2609982 17.8291687 12.2632285 17.7426328 12.2582103 17.480049 12.2429327 17.3085398 12.1059912 17.1856559 11.8744471 16.7534975 11.0601211 16.3115545 10.2509991 15.8731831 9.43998142 15.3615947 8.49347194 14.8495971 7.54718549 14.3382692 6.6005645 13.8304756 5.66044859 13.3234261 4.7199238 12.8156697 3.7798079 12.7692395 3.69382917 12.7271993 3.60420758 12.6707612 3.52510566 12.4630529 3.23404926 12.4889467 2.94957229 12.6378359 2.63565514 12.9248998 2.03034703 13.2849575 1.47804613 13.7591189 1.00644554 14.4280046.341253412 15.2266568-.00165786917 16.1866988.0000148687818 21.3389305.00886179397 26.4911621.00440115942 31.6434309.00451267528L31.881944.00451267528 31.881944.23984832C31.8817207 1.60889141 31.8814975 2.97793449 31.8812371 4.34697758 31.8811999 4.71550034 31.7501684 4.85095494 31.3732575 4.86110288 31.156397 4.86693888 30.9392761 4.8633332 30.7222668 4.8633332 25.836637 4.86396512 20.9509701 4.86448553 16.0653403 4.86504311 15.576409 4.86508028 15.3058635 5.09852016 15.2943304 5.59130876 15.2763982 6.3585379 15.2896055 7.12651048 15.2896055 7.92563316L15.5485434 7.92563316C19.6467564 7.92563316 23.7450067 7.9226594 27.8432569 7.92830954 28.5823088 7.92935036 29.3154081 8.01023653 29.9919578 8.33902247 30.4916781 8.58190402 30.9131219 8.92440641 31.1950517 9.41552227 31.5131063 9.96953308 31.6790349 10.5714214 31.7726394 11.1998504 31.9226448 12.2068759 31.8724198 13.2197744 31.8811627 14.2310746 31.884325 14.5965121 31.8909101 14.9623585 31.8789305 15.3274614 31.8489443 16.242858 31.665902 17.124205 31.2482158 17.9464858 30.8510289 18.7284723 30.2920058 19.3490209 29.4731147 19.7119678 29.0572515 19.8962664 28.6212239 19.9868173 28.1725098 19.9883413 26.1451303 19.9952181 24.1176391 19.9825797 22.090334 19.9979688 21.7097399 20.0008683 21.4832809 19.8549312 21.3172779 19.5339142 21.022736 18.9643283 20.7143172 18.4019166 20.4098419 17.8374605 19.940145 16.9666703 19.4689599 16.0966979 18.9749317 15.1830112"/>
    </g>
    <g transform="translate(35 5)">
      <path fill="#F05922" d="M149.948556,14.5639328 C149.812941,14.5591564 149.677326,14.5500979 149.54171,14.5500979 C100.167065,14.549494 50.7924192,14.5495489 1.41782828,14.5495489 L1.05604189,14.5495489 C1.03122621,14.5135893 1.01408381,14.500029 1.01239678,14.4846021 C0.945786286,13.8919004 0.946003967,13.8919004 1.52628801,13.8919004 C50.8464586,13.8919004 100.166684,13.8918455 149.486909,13.8923945 C149.640755,13.8924494 149.794656,13.9006844 149.948556,13.9051313 L149.948556,14.5639328 Z"/>
      <path fill="#2C2D2E" d="M59.5288967 7.89013722L59.5288967 7.88827061C60.1996273 7.88827061 60.8706845 7.90095254 61.5410886 7.88481191 62.2589472 7.86757327 62.6631271 7.4630692 62.6941467 6.74519527 62.7094932 6.38966211 62.7157515 6.03094474 62.6869087 5.67689388 62.6377672 5.07304749 62.2029487 4.63845816 61.6017128 4.63060744 60.2241165 4.6125453 58.8459215 4.6112277 57.4683795 4.63148584 56.8682865 4.64026986 56.4388556 5.13470032 56.4388556 5.7334959 56.4388556 6.12669054 56.4442432 6.51999499 56.4378216 6.91307983 56.4324884 7.23715522 56.5644577 7.50364039 56.8371036 7.64100049 57.087546 7.76716096 57.3761915 7.86389496 57.653191 7.879267 58.2767392 7.91390897 58.9034438 7.89013722 59.5288967 7.89013722M59.5603516 9.8456794C58.6266619 9.8452402 57.6929722 9.8439226 56.7592281 9.8456245 55.7668189 9.84749111 54.9919821 9.08723428 54.9859415 8.09074225 54.9786491 6.89276678 54.9771254 5.69473642 54.9789212 4.49676096 54.9805539 3.4415807 55.7526696 2.63054126 56.8069003 2.62104354 58.6470151 2.60435391 60.4874565 2.6040794 62.3275169 2.62054944 63.3101304 2.62933346 64.1614277 3.48429299 64.1659991 4.46283268 64.1717676 5.69665792 64.1559857 6.93108707 64.1199594 8.16436331 64.0918786 9.12626826 63.3164976 9.84787541 62.3614751 9.84880871 61.8900862 9.84930281 61.4186972 9.84666761 60.9473083 9.84617351 60.4850075 9.8456245 60.0227068 9.84606371 59.5603516 9.8456794M39.1345222 4.6217795L39.1345222 4.62326181C38.4727709 4.62326181 37.8109652 4.61722279 37.1493227 4.62512841 36.5902082 4.63177132 36.0341956 5.07212517 36.0292434 5.5059459 36.0239102 5.97221259 36.0380051 6.43875379 36.0295155 6.90496559 36.0230939 7.25500874 36.1779742 7.52588592 36.4686332 7.66593612 36.7294698 7.79165739 37.0311762 7.88575619 37.3174271 7.89327751 38.2866533 7.91869626 39.2570223 7.90090862 40.226956 7.89662641 40.5712734 7.89514411 40.9167881 7.90129292 41.2595274 7.87505067 41.7687385 7.83601668 42.2210803 7.4709858 42.2547665 7.05303121 42.2899221 6.61684977 42.3067924 6.17495873 42.2795822 5.73888709 42.2354473 5.03116968 41.7770648 4.62672051 41.0653557 4.6225481 40.4217808 4.6188149 39.7781515 4.6217795 39.1345222 4.6217795M39.1538958 9.84316498C38.2018664 9.84332968 37.2497827 9.8511804 36.2979166 9.84113367 35.32967 9.83092225 34.5817713 9.07104973 34.5759483 8.09355313 34.568656 6.85884949 34.5694723 5.62409095 34.5756762 4.38933241 34.5800843 3.52245955 35.2887459 2.72174134 36.1514715 2.64833988 36.7099874 2.60079638 37.2743262 2.61798011 37.8361074 2.61649781 39.1688614 2.6128744 40.5016698 2.61671741 41.8344238 2.61512531 42.879512 2.61386261 43.7367411 3.43538796 43.750836 4.48979962 43.7667811 5.67866167 43.7674886 6.86807271 43.750836 8.05687986 43.7365778 9.07330063 42.9403539 9.83921217 41.9283533 9.84239638 41.0035342 9.84530608 40.078715 9.84300028 39.1538958 9.84316498M80.1548896 4.6218344C79.493356 4.6218344 78.8316047 4.61156808 78.1703432 4.62457941 77.4461174 4.63890834 77.0737734 4.97703816 77.0106458 5.6940886 76.9771773 6.07449151 77.0095574 6.46032954 76.9968775 6.84320296 76.985939 7.17441537 77.1191056 7.42585791 77.3698745 7.62327873 77.6235821 7.82306026 77.9153295 7.8925638 78.2341783 7.8920148 79.4031815 7.8898737 80.5721303 7.89618721 81.7411335 7.89624211 81.9308428 7.89624211 82.1233275 7.89821852 82.3097172 7.86868225 82.8668726 7.78040286 83.204714 7.42876761 83.2512978 6.87339802 83.279542 6.5374093 83.278508 6.19790698 83.2733381 5.86027125 83.2613656 5.08107389 82.802711 4.62672051 82.0307585 4.6224383 81.4054689 4.6189796 80.7801792 4.6217246 80.1548896 4.6218344L80.1548896 4.6218344zM80.1266998 9.84371398C79.1837043 9.84371398 78.2407087 9.8510157 77.297822 9.84168268 76.2975218 9.83180065 75.5603983 9.07181833 75.5561535 8.05803276 75.5512557 6.87811943 75.5793366 5.69721791 75.5399363 4.51856728 75.5084813 3.57719497 76.2887601 2.63851276 77.3026654 2.62698373 79.18833 2.60562759 81.0746477 2.59772197 82.960149 2.62528183 83.9037432 2.63911666 84.6655191 3.42945875 84.6961033 4.39065001 84.735286 5.62409095 84.7509046 6.85934359 84.7341431 8.09322373 84.7208646 9.07044583 83.9024916 9.83361236 82.9283676 9.84585508 82.9102456 9.84607469 82.8921236 9.84601979 82.8740017 9.84601979L80.1266998 9.84601979 80.1266998 9.84371398zM46.2213886 4.61851295L46.2213886 9.82600869 44.7837122 9.82600869 44.7837122 2.6343129C44.87639 2.62937189 44.9648775 2.62058787 45.0534194 2.62047807 47.3748276 2.61822716 49.6962359 2.61745856 52.0176441 2.61487826 52.7171087 2.61416456 53.2684955 2.91122909 53.6430707 3.49481734 53.7843459 3.71491191 53.8987919 3.99589071 53.9063019 4.25265856 53.9425458 5.49565212 53.9397704 6.73985349 53.9476613 7.98367055 53.9514708 8.58702284 53.9483144 9.19037513 53.9483144 9.81843248L52.4782578 9.81843248 52.4782578 9.53059116C52.4782578 8.30472644 52.4789109 7.07891661 52.4779857 5.85310679 52.4773871 5.09131276 52.016719 4.62389316 51.2594056 4.62235595 49.6634204 4.61917175 48.0674352 4.61955605 46.4715045 4.61851295 46.400105 4.61845805 46.3287055 4.61851295 46.2213886 4.61851295M14.1700312 2.63309961L15.6059118 2.63309961C15.612279 2.73115122 15.6230542 2.8182777 15.6227821 2.90529439 15.6188094 4.18567493 15.6155442 5.46605547 15.6073267 6.74643601 15.603354 7.36142713 16.0515055 7.85459488 16.6705368 7.88484485 17.0233983 7.90208348 17.377457 7.89708757 17.7309715 7.89681307 18.6828376 7.89609937 19.6354111 7.91180081 20.5862432 7.87869603 20.8788614 7.86853951 21.1890573 7.76488809 21.4510368 7.62664959 21.7461583 7.47100776 21.8740461 7.17130802 21.8723046 6.81978257 21.8659919 5.54868015 21.8681687 4.27752283 21.8671347 3.00636551 21.8670258 2.89799267 21.8671347 2.78956494 21.8671347 2.64880104L23.3388782 2.64880104C23.3437761 2.74482135 23.3514493 2.82420692 23.3513405 2.90359249 23.3490548 4.56816405 23.3210284 6.23317481 23.3519391 7.89703267 23.3713128 8.9394761 22.5591981 9.88139742 21.4336223 9.85888837 19.6120648 9.82248959 17.7889836 9.8245758 15.9672084 9.85433166 15.0944695 9.86855079 14.1396103 9.11202717 14.1559908 8.03587507 14.1822214 6.31695239 14.1564262 4.59720621 14.1535963 2.87784433 14.1534875 2.80592518 14.163011 2.73395112 14.1700312 2.63309961M85.7689622 2.6394241L87.2089242 2.6394241C87.2089242 2.73824431 87.2091419 2.8265786 87.2089242 2.91485799 87.2056046 4.19507383 87.203591 5.47528967 87.1983667 6.75556041 87.1959722 7.35111689 87.6239337 7.83116351 88.2153739 7.88216572 88.3686216 7.89534175 88.5232298 7.89682405 88.6771849 7.89665935 89.8465146 7.89550645 91.0158988 7.88979684 92.1852286 7.89204774 92.5032066 7.89265164 92.7980015 7.83061451 93.0541581 7.63478579 93.3214708 7.43044756 93.4722695 7.1688485 93.470909 6.81649954 93.4659023 5.5362837 93.4699838 4.25595806 93.4705825 2.97568732 93.4706369 2.87609851 93.4705825 2.77656459 93.4705825 2.64623171L94.9373738 2.64623171C94.9373738 2.77085498 94.9375915 2.86846739 94.9373194 2.9660798 94.9334555 4.67616356 94.9295917 6.38619242 94.9254557 8.09627618 94.9232789 8.99965761 94.1373404 9.83013169 93.2390784 9.83968431 91.834163 9.85467204 90.4289755 9.84544882 89.0239513 9.84588803 88.5163184 9.84605273 88.0085766 9.84995063 87.5010526 9.84237442 86.552615 9.82831999 85.77386 9.11538706 85.758459 8.16715223 85.7290176 6.35698556 85.7458879 4.54605028 85.7445274 2.73538951 85.744473 2.70969625 85.7572074 2.6839481 85.7689622 2.6394241M118.472291 2.6216694C118.472291 3.89030132 118.472346 5.10584482 118.472183 6.32138832 118.472128 6.44024708 118.470278 6.55910583 118.469625 6.67796458 118.465489 7.41730447 118.901124 7.89323359 119.629322 7.8980099 120.943519 7.90657431 122.257879 7.9005902 123.572076 7.88686517 124.284057 7.87945366 124.770575 7.35570654 124.767309 6.6394796 124.762357 5.56058249 124.762412 4.48163048 124.754466 3.40273337 124.752725 3.16589427 124.726385 2.92927476 124.708862 2.65400557L126.197258 2.65400557C126.197258 2.84741869 126.197857 3.02749107 126.197204 3.20756346 126.191163 4.79851396 126.185177 6.38940957 126.178646 7.98036007 126.174075 9.08731114 125.435265 9.84262696 124.341035 9.84471316 122.482853 9.84828167 120.62467 9.84625037 118.766488 9.84202306 117.826268 9.83988195 117.054206 9.14177206 117.032221 8.20281535 116.997174 6.70415194 117.013119 5.20433563 117.007187 3.70501342 117.00599 3.41239579 116.993854 3.11933897 117.008221 2.82759974 117.011758 2.75672369 117.098613 2.63264943 117.150639 2.63072792 117.582845 2.61475199 118.015814 2.6216694 118.472291 2.6216694M65.1800077 4.61805728L65.1800077 2.65137037C65.8393101 2.65137037 66.4889801 2.64752736 67.1383779 2.65861718 67.1912745 2.65949558 67.257885 2.75419829 67.2921154 2.81925493 68.034953 4.23139575 68.7731648 5.64595218 69.5152405 7.0584773 69.5994288 7.21873074 69.7012492 7.36948646 69.8104708 7.55049215 69.8630953 7.46160886 69.9028766 7.40335984 69.9338961 7.340609 70.6699312 5.85309032 71.4022656 4.36370503 72.1463005 2.88030386 72.1985984 2.77604853 72.3343772 2.64900966 72.4351092 2.64560585 73.0669293 2.62413991 73.6997834 2.63479053 74.3512492 2.63479053L74.3512492 9.81803171 72.9027431 9.81803171 72.9027431 4.75915058C72.88473 4.75256256 72.8667713 4.74602945 72.8488126 4.73949634 72.8105551 4.80087467 72.7671277 4.85961779 72.7349108 4.92412543 71.9612713 6.47423025 71.185836 8.02351156 70.420033 9.57756919 70.328498 9.76335119 70.2199838 9.81885521 70.0135675 9.85042277 69.4431336 9.93765906 69.164447 9.71042748 68.9230384 9.18316675 68.2778853 7.77410033 67.5466393 6.4053306 66.872589 5.00922061 66.7341981 4.7225871 66.5441623 4.62036308 66.2610677 4.61860628 65.9095667 4.61635537 65.5580114 4.61805728 65.1800077 4.61805728M106.812337 4.62009956L106.812337 2.64314633 115.970083 2.64314633 115.970083 4.62729148 112.075219 4.62729148 112.075219 9.8226543 110.65327 9.8226543C110.649025 9.7303123 110.64059 9.63445669 110.640699 9.53860109 110.643094 8.0022762 110.640862 6.46589641 110.655501 4.92968132 110.657841 4.6838935 110.58519 4.61977016 110.349986 4.62185636 109.325686 4.63091488 108.301223 4.62224066 107.276869 4.62015446 107.132601 4.61982506 106.988278 4.62009956 106.812337 4.62009956"/>
      <polygon fill="#2C2D2E" points="24.368 4.646 24.368 2.641 33.526 2.641 33.526 4.622 29.626 4.622 29.626 9.83 28.222 9.83 28.222 4.646"/>
      <path fill="#2C2D2E" d="M3.95630837,9.83948118 C4.72494119,8.40609401 5.47659487,7.01080753 6.21872498,5.61036043 C6.29344411,5.46937693 6.38536005,5.44796588 6.52097553,5.44796588 C7.27322783,5.44818548 8.02548013,5.44231117 8.77767801,5.43863286 C8.86692736,5.43819366 8.95617671,5.43857796 9.12025402,5.43857796 C8.94164648,5.14694854 8.80287462,4.8978667 8.63776332,4.66810971 C8.60113844,4.6171624 8.4715092,4.62265242 8.38459992,4.62204851 C7.85313092,4.61820551 7.32160751,4.62012701 6.72537831,4.62012701 C6.86485763,4.37022167 6.97522207,4.17691836 7.08139614,3.98130924 C7.28128204,3.61287455 7.4690322,3.23719305 7.6833939,2.87759728 C7.74336511,2.77702026 7.8744637,2.66485932 7.98042009,2.65667921 C8.37600151,2.62609984 8.77517467,2.62549594 9.17189892,2.64130717 C9.24612826,2.64427178 9.33782652,2.76236193 9.38359402,2.84795122 C10.3458544,4.64818097 11.3016932,6.45192433 12.2610693,8.25369129 C12.5379599,8.7736503 12.8219253,9.2897663 13.1179719,9.83585777 C12.6371138,9.83585777 12.1700241,9.84206149 11.7034785,9.82877566 C11.6374666,9.82690905 11.5520811,9.74307658 11.5128441,9.67527493 C11.047006,8.87104311 10.5919976,8.06038797 10.1217515,7.25884626 C10.0740792,7.17748428 9.94668124,7.09776931 9.85471087,7.09590271 C8.99394442,7.07877387 8.13279703,7.07257016 7.27197616,7.08245218 C7.17456376,7.08355018 7.04259445,7.18072339 6.98746665,7.27114388 C6.5227714,8.03354182 6.06340935,8.79961806 5.62342093,9.57667432 C5.50777772,9.78090276 5.38157696,9.85479831 5.15453532,9.84447709 C4.75955252,9.82652475 4.36320922,9.83948118 3.95630837,9.83948118"/>
      <polygon fill="#2C2D2E" points="136.383 5.467 136.383 7.07 128.67 7.07 128.67 9.83 127.225 9.83 127.225 5.467"/>
      <polygon fill="#2C2D2E" points="146.613 5.464 146.613 7.065 138.892 7.065 138.892 9.825 137.44 9.825 137.44 5.464"/>
      <path fill="#2C2D2E" d="M137.415096 4.59541647C137.309085 3.7718598 138.037556 2.82060547 138.90088 2.65755212 139.112249 2.61763973 139.332923 2.61659663 139.549298 2.61692603 141.752288 2.62016514 143.955332 2.62741195 146.158376 2.63345097 146.3021 2.63383527 146.445879 2.63350587 146.607398 2.63350587L146.607398 4.59541647 137.415096 4.59541647zM127.215947 4.59613566C127.116086 3.60842764 128.017178 2.61479042 129.02575 2.61380222 131.409143 2.61138661 133.792644 2.62588024 136.176092 2.63444466 136.237913 2.63466426 136.29968 2.64525998 136.377012 2.6524519L136.377012 4.59613566 127.215947 4.59613566z"/>
      <polygon fill="#2C2D2E" points="65.184 9.826 66.616 9.826 66.616 5.464 65.184 5.464"/>
      <use fill="black" filter="url(#a)" xlink:href="#b"/>
      <use fill="#FEFEFE" xlink:href="#b"/>
      <use fill="black" filter="url(#c)" xlink:href="#d"/>
      <use fill="#FEFEFE" xlink:href="#d"/>
      <g>
        <use fill="black" filter="url(#e)" xlink:href="#f"/>
        <use fill="#FEFEFE" xlink:href="#f"/>
      </g>
      <g>
        <use fill="black" filter="url(#g)" xlink:href="#h"/>
        <use fill="#FEFEFE" xlink:href="#h"/>
      </g>
    </g>
  </g>
</svg>
