<svg xmlns="http://www.w3.org/2000/svg" width="48" height="72" viewBox="0 0 48 72">
  <path fill="#00EB00" fill-rule="evenodd" d="M33.5028834,0.0313019438 C29.953138,0.0313019438 27.311329,1.15676197 25.0793332,3.05446354 C22.1254569,5.56865645 21.3112463,9.30908281 21.3112463,13.5551259 L21.3112463,28.3846983 C21.3112463,30.8645306 21.1872746,31.3871398 21.1872746,32.60426 C21.1872746,34.4583529 22.4225713,35.3604829 23.7939425,35.3604829 C25.1673244,35.3604829 26.4038729,34.4861043 26.4038729,32.60426 C26.4038729,31.2523454 26.2799012,30.6497837 26.2799012,28.3846983 L26.2799012,13.5551259 C26.2799012,10.4891995 26.6107422,8.19857238 28.2569234,6.71120261 C29.620921,5.4802062 31.2608332,4.75901209 33.5028834,4.75901209 C37.9125831,4.75901209 41.3196248,7.9579843 41.3196248,12.0950031 C41.3196248,17.037488 37.68091,19.4599394 33.6170679,19.4599394 C32.3066928,19.4599394 32.3987513,19.3988329 31.3464285,19.3988329 C29.8537383,19.3988329 28.703874,20.4114052 28.703874,21.8849009 C28.703874,23.4773326 29.8537383,24.4320753 31.3464285,24.4320753 C32.1165677,24.4320753 32.4695399,24.3098624 33.7410395,24.3098624 C38.7104148,24.3098624 41.8122491,27.1809418 41.8122491,31.7970116 C41.8122491,36.1487742 38.4439378,39.0107897 34.2467135,39.0107897 C31.7935294,39.0107897 30.2686483,38.2159375 29.1084132,37.3609205 C28.5996793,36.9842783 28.0265939,36.7627101 27.4119585,36.7627101 C26.0901874,36.7627101 25.1478439,37.7243791 25.1478439,39.0558155 C25.1478439,39.9511448 25.7531776,40.8651945 26.4234474,41.3746499 C28.1735205,42.7007861 30.9717792,43.7384999 34.2467135,43.7384999 C40.9406911,43.7384999 46.8428899,38.9371223 46.8428899,31.6780148 C46.8428899,26.2663898 43.9175473,23.0654921 41.3457241,21.7948493 C44.3538922,19.8991288 46.2882797,16.3513018 46.2882797,12.0338967 C46.2882797,5.18710104 40.8001025,0.0313019438 33.5028834,0.0313019438 L33.5028834,0.0313019438 Z M13.0442919,0.153514859 C5.66865073,0.153514859 0.324143952,5.24820852 0.324143952,12.0950031 C0.324143952,17.037488 2.33497835,20.0058272 5.19166404,21.8559557 C1.93750789,23.930741 0.0762005702,27.393303 0.0762005702,31.7391212 C0.0762005702,38.8502199 5.26141599,43.7384999 12.8615968,43.7384999 C16.4093294,43.7384999 19.2433807,42.6396848 20.9947922,41.3135383 C21.665061,40.8040931 22.2671333,39.8880572 22.2671333,38.9947142 C22.2671333,37.6632778 21.3260404,36.7016088 20.0062811,36.7016088 C19.5303906,36.7016088 18.9446596,36.8642781 18.306564,37.3030199 C16.9023494,38.2650902 15.0761655,39.0107897 12.8615968,39.0107897 C7.9156807,39.0107897 5.1068413,36.0902252 5.1068413,31.7391212 C5.1068413,27.078781 8.71907258,24.248756 13.2400367,24.248756 C14.7461315,24.248756 15.2709217,24.4320753 16.339329,24.4320753 C17.8353703,24.4320753 18.92316,23.3583945 18.92316,21.8849009 C18.92316,20.412067 17.8353703,19.3988329 16.339329,19.3988329 C15.2709217,19.3988329 14.4827164,19.5210458 13.2400367,19.5210458 C8.44627223,19.5210458 5.35478468,16.4520546 5.35478468,12.0950031 C5.35478468,7.95864502 8.63794238,4.88122501 13.0442919,4.88122501 C14.6536074,4.88122501 15.9182376,5.33557918 17.1320953,5.98114125 C17.6602669,6.2619644 18.2488428,6.45391226 18.7274153,6.45391226 C20.0759965,6.45391226 21.0926646,5.43756907 21.0926646,4.10613783 C21.0926646,3.21146828 20.5328189,2.41862293 19.8203236,1.97062794 C18.0997427,0.883016359 15.8332813,0.153514859 13.0442919,0.153514859 L13.0442919,0.153514859 Z" transform="translate(.028 13.072)"/>
</svg>
